M48
;DRILL file {KiCad (5.0.0)} date 11/14/18 19:44:37
;FORMAT={-:-/ absolute / inch / decimal}
FMAT,2
INCH,TZ
T1C0.0315
T2C0.0520
T3C0.0551
%
G90
G05
M72
T1
X6.8425Y-4.2
X6.9213Y-4.2
X7.Y-4.2
X7.1575Y-4.2
X4.0425Y-7.
X4.1213Y-7.
X4.2Y-7.
X4.3575Y-7.
X6.8425Y-7.4
X6.9213Y-7.4
X7.Y-7.4
X7.1575Y-7.4
X4.0425Y-4.6
X4.1213Y-4.6
X4.2Y-4.6
X4.3575Y-4.6
X6.1425Y-12.2
X6.2213Y-12.2
X6.3Y-12.2
X6.4575Y-12.2
X4.0425Y-6.2
X4.1213Y-6.2
X4.2Y-6.2
X4.3575Y-6.2
X6.1425Y-8.6
X6.2213Y-8.6
X6.3Y-8.6
X6.4575Y-8.6
X1.9425Y-9.4
X2.0213Y-9.4
X2.1Y-9.4
X2.2575Y-9.4
X3.3425Y-10.6
X3.4213Y-10.6
X3.5Y-10.6
X3.6575Y-10.6
X6.1425Y-6.6
X6.2213Y-6.6
X6.3Y-6.6
X6.4575Y-6.6
X1.9425Y-2.6
X2.0213Y-2.6
X2.1Y-2.6
X2.2575Y-2.6
X3.3425Y-6.2
X3.4213Y-6.2
X3.5Y-6.2
X3.6575Y-6.2
X6.1425Y-5.
X6.2213Y-5.
X6.3Y-5.
X6.4575Y-5.
X8.2425Y-10.6
X8.3213Y-10.6
X8.4Y-10.6
X8.5575Y-10.6
X1.9425Y-3.8
X2.0213Y-3.8
X2.1Y-3.8
X2.2575Y-3.8
X3.3425Y-3.8
X3.4213Y-3.8
X3.5Y-3.8
X3.6575Y-3.8
X5.4425Y-10.6
X5.5213Y-10.6
X5.6Y-10.6
X5.7575Y-10.6
X1.2425Y-10.2
X1.3213Y-10.2
X1.4Y-10.2
X1.5575Y-10.2
X2.6425Y-10.6
X2.7213Y-10.6
X2.8Y-10.6
X2.9575Y-10.6
X5.4425Y-11.
X5.5213Y-11.
X5.6Y-11.
X5.7575Y-11.
X8.2425Y-7.8
X8.3213Y-7.8
X8.4Y-7.8
X8.5575Y-7.8
X1.2425Y-9.8031
X1.3213Y-9.8031
X1.4Y-9.8031
X1.5575Y-9.8031
X2.6425Y-2.6
X2.7213Y-2.6
X2.8Y-2.6
X2.9575Y-2.6
X5.4425Y-1.8
X5.5213Y-1.8
X5.6Y-1.8
X5.7575Y-1.8
X6.1425Y-11.
X6.2213Y-11.
X6.3Y-11.
X6.4575Y-11.
X8.2425Y-4.2
X8.3213Y-4.2
X8.4Y-4.2
X8.5575Y-4.2
X3.3425Y-11.
X3.4213Y-11.
X3.5Y-11.
X3.6575Y-11.
X5.4425Y-5.4
X5.5213Y-5.4
X5.6Y-5.4
X5.7575Y-5.4
X8.2425Y-1.4
X8.3213Y-1.4
X8.4Y-1.4
X8.5575Y-1.4
X3.3425Y-6.6
X3.4213Y-6.6
X3.5Y-6.6
X3.6575Y-6.6
X5.4425Y-1.
X5.5213Y-1.
X5.6Y-1.
X5.7575Y-1.
X0.5425Y-11.4
X0.6213Y-11.4
X0.7Y-11.4
X0.8575Y-11.4
X7.5425Y-3.
X7.6213Y-3.
X7.7Y-3.
X7.8575Y-3.
X2.6425Y-7.
X2.7213Y-7.
X2.8Y-7.
X2.9575Y-7.
X4.7425Y-10.6
X4.8213Y-10.6
X4.9Y-10.6
X5.0575Y-10.6
X0.5425Y-7.4
X0.6213Y-7.4
X0.7Y-7.4
X0.8575Y-7.4
X7.5425Y-5.4
X7.6213Y-5.4
X7.7Y-5.4
X7.8575Y-5.4
X1.2425Y-3.4
X1.3213Y-3.4
X1.4Y-3.4
X1.5575Y-3.4
X2.6425Y-8.6
X2.7213Y-8.6
X2.8Y-8.6
X2.9575Y-8.6
X4.7425Y-9.
X4.8213Y-9.
X4.9Y-9.
X5.0575Y-9.
X8.2425Y-3.4
X8.3213Y-3.4
X8.4Y-3.4
X8.5575Y-3.4
X4.7425Y-7.
X4.8213Y-7.
X4.9Y-7.
X5.0575Y-7.
X8.2425Y-4.6
X8.3213Y-4.6
X8.4Y-4.6
X8.5575Y-4.6
X4.7425Y-4.6
X4.8213Y-4.6
X4.9Y-4.6
X5.0575Y-4.6
X7.5425Y-3.4
X7.6213Y-3.4
X7.7Y-3.4
X7.8575Y-3.4
X4.7425Y-4.2
X4.8213Y-4.2
X4.9Y-4.2
X5.0575Y-4.2
X7.5425Y-7.8
X7.6213Y-7.8
X7.7Y-7.8
X7.8575Y-7.8
X4.0425Y-4.2
X4.1213Y-4.2
X4.2Y-4.2
X4.3575Y-4.2
X6.8425Y-0.6
X6.9213Y-0.6
X7.Y-0.6
X7.1575Y-0.6
X4.0425Y-3.8
X4.1213Y-3.8
X4.2Y-3.8
X4.3575Y-3.8
X6.8425Y-7.
X6.9213Y-7.
X7.Y-7.
X7.1575Y-7.
X4.0425Y-2.2
X4.1213Y-2.2
X4.2Y-2.2
X4.3575Y-2.2
X6.8425Y-3.
X6.9213Y-3.
X7.Y-3.
X7.1575Y-3.
X1.9425Y-10.6
X2.0213Y-10.6
X2.1Y-10.6
X2.2575Y-10.6
X4.0425Y-1.8
X4.1213Y-1.8
X4.2Y-1.8
X4.3575Y-1.8
X6.1425Y-7.4
X6.2213Y-7.4
X6.3Y-7.4
X6.4575Y-7.4
X1.9425Y-8.6
X2.0213Y-8.6
X2.1Y-8.6
X2.2575Y-8.6
X3.3425Y-9.8
X3.4213Y-9.8
X3.5Y-9.8
X3.6575Y-9.8
X6.1425Y-9.8
X6.2213Y-9.8
X6.3Y-9.8
X6.4575Y-9.8
X1.9425Y-6.2
X2.0213Y-6.2
X2.1Y-6.2
X2.2575Y-6.2
X3.3425Y-5.8
X3.4213Y-5.8
X3.5Y-5.8
X3.6575Y-5.8
X5.4425Y-9.
X5.5213Y-9.
X5.6Y-9.
X5.7575Y-9.
X1.9425Y-2.2
X2.0213Y-2.2
X2.1Y-2.2
X2.2575Y-2.2
X3.3425Y-3.
X3.4213Y-3.
X3.5Y-3.
X3.6575Y-3.
X6.1425Y-9.4
X6.2213Y-9.4
X6.3Y-9.4
X6.4575Y-9.4
X8.2425Y-10.2
X8.3213Y-10.2
X8.4Y-10.2
X8.5575Y-10.2
X1.2425Y-7.8
X1.3213Y-7.8
X1.4Y-7.8
X1.5575Y-7.8
X2.6425Y-9.8
X2.7213Y-9.8
X2.8Y-9.8
X2.9575Y-9.8
X6.1425Y-2.6
X6.2213Y-2.6
X6.3Y-2.6
X6.4575Y-2.6
X8.2425Y-7.4
X8.3213Y-7.4
X8.4Y-7.4
X8.5575Y-7.4
X1.2425Y-9.
X1.3213Y-9.
X1.4Y-9.
X1.5575Y-9.
X1.9425Y-11.8
X2.0213Y-11.8
X2.1Y-11.8
X2.2575Y-11.8
X5.4425Y-1.4
X5.5213Y-1.4
X5.6Y-1.4
X5.7575Y-1.4
X0.5425Y-1.
X0.6213Y-1.
X0.7Y-1.
X0.8575Y-1.
X6.1425Y-1.
X6.2213Y-1.
X6.3Y-1.
X6.4575Y-1.
X8.2425Y-2.2
X8.3213Y-2.2
X8.4Y-2.2
X8.5575Y-2.2
X3.3425Y-10.2
X3.4213Y-10.2
X3.5Y-10.2
X3.6575Y-10.2
X5.4425Y-3.
X5.5213Y-3.
X5.6Y-3.
X5.7575Y-3.
X0.5425Y-12.6
X0.6213Y-12.6
X0.7Y-12.6
X0.8575Y-12.6
X8.2425Y-1.
X8.3213Y-1.
X8.4Y-1.
X8.5575Y-1.
X1.2425Y-5.8
X1.3213Y-5.8
X1.4Y-5.8
X1.5575Y-5.8
X2.6425Y-8.2
X2.7213Y-8.2
X2.8Y-8.2
X2.9575Y-8.2
X5.4425Y-6.2
X5.5213Y-6.2
X5.6Y-6.2
X5.7575Y-6.2
X0.5425Y-8.6
X0.6213Y-8.6
X0.7Y-8.6
X0.8575Y-8.6
X6.8425Y-9.4
X6.9213Y-9.4
X7.Y-9.4
X7.1575Y-9.4
X1.2425Y-0.6
X1.3213Y-0.6
X1.4Y-0.6
X1.5575Y-0.6
X2.6425Y-3.
X2.7213Y-3.
X2.8Y-3.
X2.9575Y-3.
X4.7425Y-11.4
X4.8213Y-11.4
X4.9Y-11.4
X5.0575Y-11.4
X0.5425Y-5.
X0.6213Y-5.
X0.7Y-5.
X0.8575Y-5.
X6.8425Y-11.
X6.9213Y-11.
X7.Y-11.
X7.1575Y-11.
X1.2425Y-9.4
X1.3213Y-9.4
X1.4Y-9.4
X1.5575Y-9.4
X2.6425Y-7.8
X2.7213Y-7.8
X2.8Y-7.8
X2.9575Y-7.8
X4.7425Y-8.2
X4.8213Y-8.2
X4.9Y-8.2
X5.0575Y-8.2
X0.5425Y-10.2
X0.6213Y-10.2
X0.7Y-10.2
X0.8575Y-10.2
X7.5425Y-5.
X7.6213Y-5.
X7.7Y-5.
X7.8575Y-5.
X4.7425Y-5.
X4.8213Y-5.
X4.9Y-5.
X5.0575Y-5.
X7.5425Y-7.4
X7.6213Y-7.4
X7.7Y-7.4
X7.8575Y-7.4
X4.7425Y-0.6
X4.8213Y-0.6
X4.9Y-0.6
X5.0575Y-0.6
X6.8425Y-12.2
X6.9213Y-12.2
X7.Y-12.2
X7.1575Y-12.2
X4.0425Y-9.4
X4.1213Y-9.4
X4.2Y-9.4
X4.3575Y-9.4
X6.8425Y-10.6
X6.9213Y-10.6
X7.Y-10.6
X7.1575Y-10.6
X4.0425Y-10.2
X4.1213Y-10.2
X4.2Y-10.2
X4.3575Y-10.2
X6.8425Y-5.
X6.9213Y-5.
X7.Y-5.
X7.1575Y-5.
X4.0425Y-3.4
X4.1213Y-3.4
X4.2Y-3.4
X4.3575Y-3.4
X6.8425Y-6.2
X6.9213Y-6.2
X7.Y-6.2
X7.1575Y-6.2
X4.0425Y-3.
X4.1213Y-3.
X4.2Y-3.
X4.3575Y-3.
X6.8425Y-2.2
X6.9213Y-2.2
X7.Y-2.2
X7.1575Y-2.2
X1.9425Y-7.8
X2.0213Y-7.8
X2.1Y-7.8
X2.2575Y-7.8
X4.7425Y-1.4
X4.8213Y-1.4
X4.9Y-1.4
X5.0575Y-1.4
X6.1425Y-5.8
X6.2213Y-5.8
X6.3Y-5.8
X6.4575Y-5.8
X1.9425Y-8.2
X2.0213Y-8.2
X2.1Y-8.2
X2.2575Y-8.2
X3.3425Y-9.
X3.4213Y-9.
X3.5Y-9.
X3.6575Y-9.
X5.4425Y-8.2
X5.5213Y-8.2
X5.6Y-8.2
X5.7575Y-8.2
X1.9425Y-5.8
X2.0213Y-5.8
X2.1Y-5.8
X2.2575Y-5.8
X3.3425Y-5.4
X3.4213Y-5.4
X3.5Y-5.4
X3.6575Y-5.4
X6.1425Y-7.8
X6.2213Y-7.8
X6.3Y-7.8
X6.4575Y-7.8
X1.9425Y-1.8
X2.0213Y-1.8
X2.1Y-1.8
X2.2575Y-1.8
X3.3425Y-2.6
X3.4213Y-2.6
X3.5Y-2.6
X3.6575Y-2.6
X6.1425Y-3.8
X6.2213Y-3.8
X6.3Y-3.8
X6.4575Y-3.8
X8.2425Y-9.8
X8.3213Y-9.8
X8.4Y-9.8
X8.5575Y-9.8
X1.2425Y-1.4
X1.3213Y-1.4
X1.4Y-1.4
X1.5575Y-1.4
X2.6425Y-11.
X2.7213Y-11.
X2.8Y-11.
X2.9575Y-11.
X6.1425Y-1.4
X6.2213Y-1.4
X6.3Y-1.4
X6.4575Y-1.4
X8.2425Y-7.
X8.3213Y-7.
X8.4Y-7.
X8.5575Y-7.
X1.2425Y-8.6
X1.3213Y-8.6
X1.4Y-8.6
X1.5575Y-8.6
X2.6425Y-5.
X2.7213Y-5.
X2.8Y-5.
X2.9575Y-5.
X5.4425Y-6.6
X5.5213Y-6.6
X5.6Y-6.6
X5.7575Y-6.6
X0.5425Y-11.
X0.6213Y-11.
X0.7Y-11.
X0.8575Y-11.
X6.1425Y-7.
X6.2213Y-7.
X6.3Y-7.
X6.4575Y-7.
X8.2425Y-1.8
X8.3213Y-1.8
X8.4Y-1.8
X8.5575Y-1.8
X1.2425Y-3.
X1.3213Y-3.
X1.4Y-3.
X1.5575Y-3.
X3.3425Y-9.4
X3.4213Y-9.4
X3.5Y-9.4
X3.6575Y-9.4
X5.4425Y-4.6
X5.5213Y-4.6
X5.6Y-4.6
X5.7575Y-4.6
X0.5425Y-9.4
X0.6213Y-9.4
X0.7Y-9.4
X0.8575Y-9.4
X0.5425Y-2.6
X0.6213Y-2.6
X0.7Y-2.6
X0.8575Y-2.6
X7.5425Y-11.8
X7.6213Y-11.8
X7.7Y-11.8
X7.8575Y-11.8
X1.2425Y-1.
X1.3213Y-1.
X1.4Y-1.
X1.5575Y-1.
X2.6425Y-4.2
X2.7213Y-4.2
X2.8Y-4.2
X2.9575Y-4.2
X5.4425Y-5.8
X5.5213Y-5.8
X5.6Y-5.8
X5.7575Y-5.8
X0.5425Y-8.2
X0.6213Y-8.2
X0.7Y-8.2
X0.8575Y-8.2
X6.8425Y-9.8
X6.9213Y-9.8
X7.Y-9.8
X7.1575Y-9.8
X1.9425Y-11.4
X2.0213Y-11.4
X2.1Y-11.4
X2.2575Y-11.4
X4.7425Y-2.2
X4.8213Y-2.2
X4.9Y-2.2
X5.0575Y-2.2
X0.5425Y-3.8
X0.6213Y-3.8
X0.7Y-3.8
X0.8575Y-3.8
X7.5425Y-9.8
X7.6213Y-9.8
X7.7Y-9.8
X7.8575Y-9.8
X2.6425Y-1.
X2.7213Y-1.
X2.8Y-1.
X2.9575Y-1.
X4.7425Y-3.4
X4.8213Y-3.4
X4.9Y-3.4
X5.0575Y-3.4
X7.5425Y-0.6
X7.6213Y-0.6
X7.7Y-0.6
X7.8575Y-0.6
X4.7425Y-7.4
X4.8213Y-7.4
X4.9Y-7.4
X5.0575Y-7.4
X7.5425Y-2.6
X7.6213Y-2.6
X7.7Y-2.6
X7.8575Y-2.6
X4.0425Y-8.2
X4.1213Y-8.2
X4.2Y-8.2
X4.3575Y-8.2
X7.5425Y-1.4
X7.6213Y-1.4
X7.7Y-1.4
X7.8575Y-1.4
X4.7425Y-1.
X4.8213Y-1.
X4.9Y-1.
X5.0575Y-1.
X6.8425Y-9.
X6.9213Y-9.
X7.Y-9.
X7.1575Y-9.
X4.0425Y-9.8
X4.1213Y-9.8
X4.2Y-9.8
X4.3575Y-9.8
X6.8425Y-3.8
X6.9213Y-3.8
X7.Y-3.8
X7.1575Y-3.8
X4.0425Y-1.4
X4.1213Y-1.4
X4.2Y-1.4
X4.3575Y-1.4
X6.8425Y-4.6
X6.9213Y-4.6
X7.Y-4.6
X7.1575Y-4.6
X4.0425Y-9.
X4.1213Y-9.
X4.2Y-9.
X4.3575Y-9.
X6.1425Y-11.8
X6.2213Y-11.8
X6.3Y-11.8
X6.4575Y-11.8
X1.9425Y-10.2
X2.0213Y-10.2
X2.1Y-10.2
X2.2575Y-10.2
X4.0425Y-10.6
X4.1213Y-10.6
X4.2Y-10.6
X4.3575Y-10.6
X6.1425Y-3.
X6.2213Y-3.
X6.3Y-3.
X6.4575Y-3.
X1.9425Y-7.4
X2.0213Y-7.4
X2.1Y-7.4
X2.2575Y-7.4
X3.3425Y-8.6
X3.4213Y-8.6
X3.5Y-8.6
X3.6575Y-8.6
X5.4425Y-8.6
X5.5213Y-8.6
X5.6Y-8.6
X5.7575Y-8.6
X1.9425Y-5.
X2.0213Y-5.
X2.1Y-5.
X2.2575Y-5.
X3.3425Y-5.
X3.4213Y-5.
X3.5Y-5.
X3.6575Y-5.
X6.1425Y-9.
X6.2213Y-9.
X6.3Y-9.
X6.4575Y-9.
X1.9425Y-1.4
X2.0213Y-1.4
X2.1Y-1.4
X2.2575Y-1.4
X3.3425Y-0.6
X3.4213Y-0.6
X3.5Y-0.6
X3.6575Y-0.6
X6.1425Y-3.4
X6.2213Y-3.4
X6.3Y-3.4
X6.4575Y-3.4
X8.2425Y-9.4
X8.3213Y-9.4
X8.4Y-9.4
X8.5575Y-9.4
X1.2425Y-7.
X1.3213Y-7.
X1.4Y-7.
X1.5575Y-7.
X2.6425Y-10.2
X2.7213Y-10.2
X2.8Y-10.2
X2.9575Y-10.2
X5.4425Y-12.6
X5.5213Y-12.6
X5.6Y-12.6
X5.7575Y-12.6
X8.2425Y-6.6
X8.3213Y-6.6
X8.4Y-6.6
X8.5575Y-6.6
X2.6425Y-1.4
X2.7213Y-1.4
X2.8Y-1.4
X2.9575Y-1.4
X5.4425Y-7.8
X5.5213Y-7.8
X5.6Y-7.8
X5.7575Y-7.8
X0.5425Y-9.
X0.6213Y-9.
X0.7Y-9.
X0.8575Y-9.
X5.4425Y-9.4
X5.5213Y-9.4
X5.6Y-9.4
X5.7575Y-9.4
X7.5425Y-11.
X7.6213Y-11.
X7.7Y-11.
X7.8575Y-11.
X1.2425Y-7.4
X1.3213Y-7.4
X1.4Y-7.4
X1.5575Y-7.4
X2.6425Y-5.8
X2.7213Y-5.8
X2.8Y-5.8
X2.9575Y-5.8
X5.4425Y-4.2
X5.5213Y-4.2
X5.6Y-4.2
X5.7575Y-4.2
X0.5425Y-4.6
X0.6213Y-4.6
X0.7Y-4.6
X0.8575Y-4.6
X0.5425Y-2.2
X0.6213Y-2.2
X0.7Y-2.2
X0.8575Y-2.2
X8.2425Y-0.6
X8.3213Y-0.6
X8.4Y-0.6
X8.5575Y-0.6
X1.2425Y-4.2
X1.3213Y-4.2
X1.4Y-4.2
X1.5575Y-4.2
X2.6425Y-5.4
X2.7213Y-5.4
X2.8Y-5.4
X2.9575Y-5.4
X5.4425Y-0.6
X5.5213Y-0.6
X5.6Y-0.6
X5.7575Y-0.6
X0.5425Y-7.
X0.6213Y-7.
X0.7Y-7.
X0.8575Y-7.
X7.5425Y-10.2
X7.6213Y-10.2
X7.7Y-10.2
X7.8575Y-10.2
X1.9425Y-1.
X2.0213Y-1.
X2.1Y-1.
X2.2575Y-1.
X3.3425Y-1.8
X3.4213Y-1.8
X3.5Y-1.8
X3.6575Y-1.8
X4.7425Y-11.
X4.8213Y-11.
X4.9Y-11.
X5.0575Y-11.
X7.5425Y-4.2
X7.6213Y-4.2
X7.7Y-4.2
X7.8575Y-4.2
X2.6425Y-1.8
X2.7213Y-1.8
X2.8Y-1.8
X2.9575Y-1.8
X4.7425Y-8.6
X4.8213Y-8.6
X4.9Y-8.6
X5.0575Y-8.6
X6.8425Y-12.6
X6.9213Y-12.6
X7.Y-12.6
X7.1575Y-12.6
X4.7425Y-3.8
X4.8213Y-3.8
X4.9Y-3.8
X5.0575Y-3.8
X7.5425Y-4.6
X7.6213Y-4.6
X7.7Y-4.6
X7.8575Y-4.6
X4.0425Y-5.
X4.1213Y-5.
X4.2Y-5.
X4.3575Y-5.
X7.5425Y-1.
X7.6213Y-1.
X7.7Y-1.
X7.8575Y-1.
X4.0425Y-12.2
X4.1213Y-12.2
X4.2Y-12.2
X4.3575Y-12.2
X6.8425Y-5.8
X6.9213Y-5.8
X7.Y-5.8
X7.1575Y-5.8
X4.0425Y-8.6
X4.1213Y-8.6
X4.2Y-8.6
X4.3575Y-8.6
X6.8425Y-1.4
X6.9213Y-1.4
X7.Y-1.4
X7.1575Y-1.4
X4.0425Y-6.6
X4.1213Y-6.6
X4.2Y-6.6
X4.3575Y-6.6
X6.8425Y-5.4
X6.9213Y-5.4
X7.Y-5.4
X7.1575Y-5.4
X4.0425Y-11.4
X4.1213Y-11.4
X4.2Y-11.4
X4.3575Y-11.4
X6.8425Y-1.8
X6.9213Y-1.8
X7.Y-1.8
X7.1575Y-1.8
X1.9425Y-9.8
X2.0213Y-9.8
X2.1Y-9.8
X2.2575Y-9.8
X4.0425Y-5.8
X4.1213Y-5.8
X4.2Y-5.8
X4.3575Y-5.8
X6.1425Y-10.6
X6.2213Y-10.6
X6.3Y-10.6
X6.4575Y-10.6
X8.2425Y-12.6
X8.3213Y-12.6
X8.4Y-12.6
X8.5575Y-12.6
X1.9425Y-7.
X2.0213Y-7.
X2.1Y-7.
X2.2575Y-7.
X3.3425Y-8.2
X3.4213Y-8.2
X3.5Y-8.2
X3.6575Y-8.2
X6.1425Y-2.2
X6.2213Y-2.2
X6.3Y-2.2
X6.4575Y-2.2
X1.9425Y-5.4
X2.0213Y-5.4
X2.1Y-5.4
X2.2575Y-5.4
X3.3425Y-3.4
X3.4213Y-3.4
X3.5Y-3.4
X3.6575Y-3.4
X5.4425Y-12.2
X5.5213Y-12.2
X5.6Y-12.2
X5.7575Y-12.2
X1.9425Y-0.6
X2.0213Y-0.6
X2.1Y-0.6
X2.2575Y-0.6
X3.3425Y-1.4
X3.4213Y-1.4
X3.5Y-1.4
X3.6575Y-1.4
X6.1425Y-0.6
X6.2213Y-0.6
X6.3Y-0.6
X6.4575Y-0.6
X8.2425Y-9.
X8.3213Y-9.
X8.4Y-9.
X8.5575Y-9.
X2.6425Y-9.
X2.7213Y-9.
X2.8Y-9.
X2.9575Y-9.
X6.1425Y-10.2
X6.2213Y-10.2
X6.3Y-10.2
X6.4575Y-10.2
X8.2425Y-5.8
X8.3213Y-5.8
X8.4Y-5.8
X8.5575Y-5.8
X1.2425Y-2.6
X1.3213Y-2.6
X1.4Y-2.6
X1.5575Y-2.6
X2.6425Y-4.6
X2.7213Y-4.6
X2.8Y-4.6
X2.9575Y-4.6
X5.4386Y-7.4
X5.5173Y-7.4
X5.5961Y-7.4
X5.7535Y-7.4
X7.5425Y-9.4
X7.6213Y-9.4
X7.7Y-9.4
X7.8575Y-9.4
X1.2425Y-3.8
X1.3213Y-3.8
X1.4Y-3.8
X1.5575Y-3.8
X2.6425Y-7.4
X2.7213Y-7.4
X2.8Y-7.4
X2.9575Y-7.4
X5.4425Y-3.8
X5.5213Y-3.8
X5.6Y-3.8
X5.7575Y-3.8
X0.5425Y-1.8
X0.6213Y-1.8
X0.7Y-1.8
X0.8575Y-1.8
X7.5425Y-12.2
X7.6213Y-12.2
X7.7Y-12.2
X7.8575Y-12.2
X1.2425Y-1.8
X1.3213Y-1.8
X1.4Y-1.8
X1.5575Y-1.8
X1.9425Y-12.6
X2.0213Y-12.6
X2.1Y-12.6
X2.2575Y-12.6
X4.7425Y-12.6
X4.8213Y-12.6
X4.9Y-12.6
X5.0575Y-12.6
X0.5425Y-6.6
X0.6213Y-6.6
X0.7Y-6.6
X0.8575Y-6.6
X7.5425Y-8.2
X7.6213Y-8.2
X7.7Y-8.2
X7.8575Y-8.2
X1.2425Y-5.4
X1.3213Y-5.4
X1.4Y-5.4
X1.5575Y-5.4
X2.6425Y-0.6
X2.7213Y-0.6
X2.8Y-0.6
X2.9575Y-0.6
X4.7425Y-10.2
X4.8213Y-10.2
X4.9Y-10.2
X5.0575Y-10.2
X0.5425Y-9.8
X0.6213Y-9.8
X0.7Y-9.8
X0.8575Y-9.8
X7.5425Y-2.2
X7.6213Y-2.2
X7.7Y-2.2
X7.8575Y-2.2
X2.6425Y-9.4
X2.7213Y-9.4
X2.8Y-9.4
X2.9575Y-9.4
X4.7425Y-6.6
X4.8213Y-6.6
X4.9Y-6.6
X5.0575Y-6.6
X8.2425Y-6.2
X8.3213Y-6.2
X8.4Y-6.2
X8.5575Y-6.2
X4.7425Y-5.8
X4.8213Y-5.8
X4.9Y-5.8
X5.0575Y-5.8
X7.5425Y-6.6
X7.6213Y-6.6
X7.7Y-6.6
X7.8575Y-6.6
X4.0425Y-0.6
X4.1213Y-0.6
X4.2Y-0.6
X4.3575Y-0.6
X6.8425Y-10.2
X6.9213Y-10.2
X7.Y-10.2
X7.1575Y-10.2
X4.0425Y-5.4
X4.1213Y-5.4
X4.2Y-5.4
X4.3575Y-5.4
X6.8425Y-8.6
X6.9213Y-8.6
X7.Y-8.6
X7.1575Y-8.6
X4.0425Y-7.4
X4.1213Y-7.4
X4.2Y-7.4
X4.3575Y-7.4
X6.8425Y-8.2
X6.9213Y-8.2
X7.Y-8.2
X7.1575Y-8.2
X3.3425Y-12.6
X3.4213Y-12.6
X3.5Y-12.6
X3.6575Y-12.6
X6.8425Y-3.4
X6.9213Y-3.4
X7.Y-3.4
X7.1575Y-3.4
X4.7425Y-1.8
X4.8213Y-1.8
X4.9Y-1.8
X5.0575Y-1.8
X6.8425Y-1.
X6.9213Y-1.
X7.Y-1.
X7.1575Y-1.
X1.9425Y-3.
X2.0213Y-3.
X2.1Y-3.
X2.2575Y-3.
X3.3425Y-11.8
X3.4213Y-11.8
X3.5Y-11.8
X3.6575Y-11.8
X6.1425Y-4.2
X6.2213Y-4.2
X6.3Y-4.2
X6.4575Y-4.2
X8.2425Y-11.
X8.3213Y-11.
X8.4Y-11.
X8.5575Y-11.
X1.9425Y-6.6
X2.0213Y-6.6
X2.1Y-6.6
X2.2575Y-6.6
X3.3425Y-7.4
X3.4213Y-7.4
X3.5Y-7.4
X3.6575Y-7.4
X6.1425Y-8.2
X6.2213Y-8.2
X6.3Y-8.2
X6.4575Y-8.2
X8.2425Y-11.8
X8.3213Y-11.8
X8.4Y-11.8
X8.5575Y-11.8
X1.9425Y-4.6
X2.0213Y-4.6
X2.1Y-4.6
X2.2575Y-4.6
X3.3425Y-4.6
X3.4213Y-4.6
X3.5Y-4.6
X3.6575Y-4.6
X5.4425Y-11.4
X5.5213Y-11.4
X5.6Y-11.4
X5.7575Y-11.4
X8.2425Y-12.2
X8.3213Y-12.2
X8.4Y-12.2
X8.5575Y-12.2
X1.2425Y-11.4
X1.3213Y-11.4
X1.4Y-11.4
X1.5575Y-11.4
X2.6425Y-11.8
X2.7213Y-11.8
X2.8Y-11.8
X2.9575Y-11.8
X6.1425Y-1.8
X6.2213Y-1.8
X6.3Y-1.8
X6.4575Y-1.8
X8.2425Y-8.6
X8.3213Y-8.6
X8.4Y-8.6
X8.5575Y-8.6
X1.2425Y-6.6
X1.3213Y-6.6
X1.4Y-6.6
X1.5575Y-6.6
X2.6425Y-6.6
X2.7213Y-6.6
X2.8Y-6.6
X2.9575Y-6.6
X0.5425Y-10.6
X0.6213Y-10.6
X0.7Y-10.6
X0.8575Y-10.6
X6.1425Y-5.4
X6.2213Y-5.4
X6.3Y-5.4
X6.4575Y-5.4
X8.2425Y-5.4
X8.3213Y-5.4
X8.4Y-5.4
X8.5575Y-5.4
X1.2425Y-8.2
X1.3213Y-8.2
X1.4Y-8.2
X1.5575Y-8.2
X2.6425Y-3.8
X2.7213Y-3.8
X2.8Y-3.8
X2.9575Y-3.8
X5.4425Y-7.
X5.5213Y-7.
X5.6Y-7.
X5.7575Y-7.
X0.5425Y-11.8
X0.6213Y-11.8
X0.7Y-11.8
X0.8575Y-11.8
X0.5425Y-3.4
X0.6213Y-3.4
X0.7Y-3.4
X0.8575Y-3.4
X7.5425Y-8.6
X7.6213Y-8.6
X7.7Y-8.6
X7.8575Y-8.6
X1.2425Y-2.2
X1.3213Y-2.2
X1.4Y-2.2
X1.5575Y-2.2
X3.3425Y-7.8
X3.4213Y-7.8
X3.5Y-7.8
X3.6575Y-7.8
X5.4425Y-2.2
X5.5213Y-2.2
X5.6Y-2.2
X5.7575Y-2.2
X0.5425Y-7.8
X0.6213Y-7.8
X0.7Y-7.8
X0.8575Y-7.8
X0.5425Y-1.4
X0.6213Y-1.4
X0.7Y-1.4
X0.8575Y-1.4
X7.5425Y-11.4
X7.6213Y-11.4
X7.7Y-11.4
X7.8575Y-11.4
X1.2425Y-5.
X1.3213Y-5.
X1.4Y-5.
X1.5575Y-5.
X3.3425Y-1.
X3.4213Y-1.
X3.5Y-1.
X3.6575Y-1.
X4.7425Y-12.2
X4.8213Y-12.2
X4.9Y-12.2
X5.0575Y-12.2
X0.5425Y-5.4
X0.6213Y-5.4
X0.7Y-5.4
X0.8575Y-5.4
X7.5425Y-7.
X7.6213Y-7.
X7.7Y-7.
X7.8575Y-7.
X1.2425Y-11.8
X1.3213Y-11.8
X1.4Y-11.8
X1.5575Y-11.8
X2.6425Y-12.2
X2.7213Y-12.2
X2.8Y-12.2
X2.9575Y-12.2
X4.7425Y-9.8
X4.8213Y-9.8
X4.9Y-9.8
X5.0575Y-9.8
X8.2425Y-3.8
X8.3213Y-3.8
X8.4Y-3.8
X8.5575Y-3.8
X2.6425Y-2.2
X2.7213Y-2.2
X2.8Y-2.2
X2.9575Y-2.2
X4.7425Y-7.8
X4.8213Y-7.8
X4.9Y-7.8
X5.0575Y-7.8
X7.5425Y-3.8
X7.6213Y-3.8
X7.7Y-3.8
X7.8575Y-3.8
X4.7425Y-5.4
X4.8213Y-5.4
X4.9Y-5.4
X5.0575Y-5.4
X7.5425Y-6.2
X7.6213Y-6.2
X7.7Y-6.2
X7.8575Y-6.2
X4.0425Y-7.8
X4.1213Y-7.8
X4.2Y-7.8
X4.3575Y-7.8
X7.5425Y-1.8
X7.6213Y-1.8
X7.7Y-1.8
X7.8575Y-1.8
X4.0425Y-11.8
X4.1213Y-11.8
X4.2Y-11.8
X4.3575Y-11.8
X6.8425Y-6.6
X6.9213Y-6.6
X7.Y-6.6
X7.1575Y-6.6
X4.0425Y-1.
X4.1213Y-1.
X4.2Y-1.
X4.3575Y-1.
X6.8425Y-7.8
X6.9213Y-7.8
X7.Y-7.8
X7.1575Y-7.8
X3.3425Y-12.2
X3.4213Y-12.2
X3.5Y-12.2
X3.6575Y-12.2
X6.8425Y-2.6
X6.9213Y-2.6
X7.Y-2.6
X7.1575Y-2.6
X4.0425Y-2.6
X4.1213Y-2.6
X4.2Y-2.6
X4.3575Y-2.6
X0.5425Y-0.6
X0.6213Y-0.6
X0.7Y-0.6
X0.8575Y-0.6
X6.1425Y-11.4
X6.2213Y-11.4
X6.3Y-11.4
X6.4575Y-11.4
X1.9425Y-9.
X2.0213Y-9.
X2.1Y-9.
X2.2575Y-9.
X3.3425Y-11.4
X3.4213Y-11.4
X3.5Y-11.4
X3.6575Y-11.4
X5.4425Y-10.2
X5.5213Y-10.2
X5.6Y-10.2
X5.7575Y-10.2
X1.9425Y-3.4
X2.0213Y-3.4
X2.1Y-3.4
X2.2575Y-3.4
X3.3425Y-7.
X3.4213Y-7.
X3.5Y-7.
X3.6575Y-7.
X6.1425Y-6.2
X6.2213Y-6.2
X6.3Y-6.2
X6.4575Y-6.2
X8.2425Y-11.4
X8.3213Y-11.4
X8.4Y-11.4
X8.5575Y-11.4
X1.9425Y-4.2
X2.0213Y-4.2
X2.1Y-4.2
X2.2575Y-4.2
X3.3425Y-4.2
X3.4213Y-4.2
X3.5Y-4.2
X3.6575Y-4.2
X5.4425Y-11.8
X5.5213Y-11.8
X5.6Y-11.8
X5.7575Y-11.8
X1.2425Y-10.6
X1.3213Y-10.6
X1.4Y-10.6
X1.5575Y-10.6
X2.6425Y-11.4
X2.7213Y-11.4
X2.8Y-11.4
X2.9575Y-11.4
X6.1425Y-4.6
X6.2213Y-4.6
X6.3Y-4.6
X6.4575Y-4.6
X8.2425Y-8.2
X8.3213Y-8.2
X8.4Y-8.2
X8.5575Y-8.2
X2.6425Y-6.2
X2.7213Y-6.2
X2.8Y-6.2
X2.9575Y-6.2
X5.4425Y-3.4
X5.5213Y-3.4
X5.6Y-3.4
X5.7575Y-3.4
X0.5425Y-6.2
X0.6213Y-6.2
X0.7Y-6.2
X0.8575Y-6.2
X5.4425Y-9.8
X5.5213Y-9.8
X5.6Y-9.8
X5.7575Y-9.8
X8.2425Y-5.
X8.3213Y-5.
X8.4Y-5.
X8.5575Y-5.
X1.2425Y-6.2
X1.3213Y-6.2
X1.4Y-6.2
X1.5575Y-6.2
X1.9425Y-11.
X2.0213Y-11.
X2.1Y-11.
X2.2575Y-11.
X5.4425Y-5.
X5.5213Y-5.
X5.6Y-5.
X5.7575Y-5.
X0.5425Y-3.
X0.6213Y-3.
X0.7Y-3.
X0.8575Y-3.
X8.2425Y-3.
X8.3213Y-3.
X8.4Y-3.
X8.5575Y-3.
X3.3425Y-2.2
X3.4213Y-2.2
X3.5Y-2.2
X3.6575Y-2.2
X5.4425Y-2.6
X5.5213Y-2.6
X5.6Y-2.6
X5.7575Y-2.6
X0.5425Y-4.2
X0.6213Y-4.2
X0.7Y-4.2
X0.8575Y-4.2
X7.5425Y-9.
X7.6213Y-9.
X7.7Y-9.
X7.8575Y-9.
X1.2425Y-4.6
X1.3213Y-4.6
X1.4Y-4.6
X1.5575Y-4.6
X1.9425Y-12.2
X2.0213Y-12.2
X2.1Y-12.2
X2.2575Y-12.2
X4.7425Y-11.8
X4.8213Y-11.8
X4.9Y-11.8
X5.0575Y-11.8
X0.5425Y-5.8
X0.6213Y-5.8
X0.7Y-5.8
X0.8575Y-5.8
X7.5425Y-10.6
X7.6213Y-10.6
X7.7Y-10.6
X7.8575Y-10.6
X1.2425Y-11.
X1.3213Y-11.
X1.4Y-11.
X1.5575Y-11.
X2.6425Y-3.4
X2.7213Y-3.4
X2.8Y-3.4
X2.9575Y-3.4
X4.7425Y-9.4
X4.8213Y-9.4
X4.9Y-9.4
X5.0575Y-9.4
X0.5425Y-12.2
X0.6213Y-12.2
X0.7Y-12.2
X0.8575Y-12.2
X8.2425Y-2.6
X8.3213Y-2.6
X8.4Y-2.6
X8.5575Y-2.6
X4.7425Y-3.
X4.8213Y-3.
X4.9Y-3.
X5.0575Y-3.
X6.8425Y-11.4
X6.9213Y-11.4
X7.Y-11.4
X7.1575Y-11.4
X4.7425Y-2.6
X4.8213Y-2.6
X4.9Y-2.6
X5.0575Y-2.6
X7.5425Y-5.8
X7.6213Y-5.8
X7.7Y-5.8
X7.8575Y-5.8
X4.7425Y-6.2
X4.8213Y-6.2
X4.9Y-6.2
X5.0575Y-6.2
X6.8425Y-11.8
X6.9213Y-11.8
X7.Y-11.8
X7.1575Y-11.8
X4.0425Y-11.
X4.1213Y-11.
X4.2Y-11.
X4.3575Y-11.
T2
X2.7031Y-12.6
X2.9Y-12.6
T3
X7.4598Y-5.8
X7.9402Y-5.8
X4.6598Y-6.2
X5.1402Y-6.2
X6.7598Y-11.8
X7.2402Y-11.8
X3.9598Y-11.
X4.4402Y-11.
X6.7598Y-4.2
X7.2402Y-4.2
X3.9598Y-7.
X4.4402Y-7.
X6.7598Y-7.4
X7.2402Y-7.4
X3.9598Y-4.6
X4.4402Y-4.6
X6.0598Y-12.2
X6.5402Y-12.2
X3.9598Y-6.2
X4.4402Y-6.2
X6.0598Y-8.6
X6.5402Y-8.6
X1.8598Y-9.4
X2.3402Y-9.4
X3.2598Y-10.6
X3.7402Y-10.6
X6.0598Y-6.6
X6.5402Y-6.6
X1.8598Y-2.6
X2.3402Y-2.6
X3.2598Y-6.2
X3.7402Y-6.2
X6.0598Y-5.
X6.5402Y-5.
X8.1598Y-10.6
X8.6402Y-10.6
X1.8598Y-3.8
X2.3402Y-3.8
X3.2598Y-3.8
X3.7402Y-3.8
X5.3598Y-10.6
X5.8402Y-10.6
X1.1598Y-10.2
X1.6402Y-10.2
X2.5598Y-10.6
X3.0402Y-10.6
X5.3598Y-11.
X5.8402Y-11.
X8.1598Y-7.8
X8.6402Y-7.8
X1.1598Y-9.8031
X1.6402Y-9.8031
X2.5598Y-2.6
X3.0402Y-2.6
X5.3598Y-1.8
X5.8402Y-1.8
X6.0598Y-11.
X6.5402Y-11.
X8.1598Y-4.2
X8.6402Y-4.2
X3.2598Y-11.
X3.7402Y-11.
X5.3598Y-5.4
X5.8402Y-5.4
X8.1598Y-1.4
X8.6402Y-1.4
X3.2598Y-6.6
X3.7402Y-6.6
X5.3598Y-1.
X5.8402Y-1.
X0.4598Y-11.4
X0.9402Y-11.4
X7.4598Y-3.
X7.9402Y-3.
X2.5598Y-7.
X3.0402Y-7.
X4.6598Y-10.6
X5.1402Y-10.6
X0.4598Y-7.4
X0.9402Y-7.4
X7.4598Y-5.4
X7.9402Y-5.4
X1.1598Y-3.4
X1.6402Y-3.4
X2.5598Y-8.6
X3.0402Y-8.6
X4.6598Y-9.
X5.1402Y-9.
X8.1598Y-3.4
X8.6402Y-3.4
X4.6598Y-7.
X5.1402Y-7.
X8.1598Y-4.6
X8.6402Y-4.6
X4.6598Y-4.6
X5.1402Y-4.6
X7.4598Y-3.4
X7.9402Y-3.4
X4.6598Y-4.2
X5.1402Y-4.2
X7.4598Y-7.8
X7.9402Y-7.8
X3.9598Y-4.2
X4.4402Y-4.2
X6.7598Y-0.6
X7.2402Y-0.6
X3.9598Y-3.8
X4.4402Y-3.8
X6.7598Y-7.
X7.2402Y-7.
X3.9598Y-2.2
X4.4402Y-2.2
X6.7598Y-3.
X7.2402Y-3.
X1.8598Y-10.6
X2.3402Y-10.6
X3.9598Y-1.8
X4.4402Y-1.8
X6.0598Y-7.4
X6.5402Y-7.4
X1.8598Y-8.6
X2.3402Y-8.6
X3.2598Y-9.8
X3.7402Y-9.8
X6.0598Y-9.8
X6.5402Y-9.8
X1.8598Y-6.2
X2.3402Y-6.2
X3.2598Y-5.8
X3.7402Y-5.8
X5.3598Y-9.
X5.8402Y-9.
X1.8598Y-2.2
X2.3402Y-2.2
X3.2598Y-3.
X3.7402Y-3.
X6.0598Y-9.4
X6.5402Y-9.4
X8.1598Y-10.2
X8.6402Y-10.2
X1.1598Y-7.8
X1.6402Y-7.8
X2.5598Y-9.8
X3.0402Y-9.8
X6.0598Y-2.6
X6.5402Y-2.6
X8.1598Y-7.4
X8.6402Y-7.4
X1.1598Y-9.
X1.6402Y-9.
X1.8598Y-11.8
X2.3402Y-11.8
X5.3598Y-1.4
X5.8402Y-1.4
X0.4598Y-1.
X0.9402Y-1.
X6.0598Y-1.
X6.5402Y-1.
X8.1598Y-2.2
X8.6402Y-2.2
X3.2598Y-10.2
X3.7402Y-10.2
X5.3598Y-3.
X5.8402Y-3.
X0.4598Y-12.6
X0.9402Y-12.6
X8.1598Y-1.
X8.6402Y-1.
X1.1598Y-5.8
X1.6402Y-5.8
X2.5598Y-8.2
X3.0402Y-8.2
X5.3598Y-6.2
X5.8402Y-6.2
X0.4598Y-8.6
X0.9402Y-8.6
X6.7598Y-9.4
X7.2402Y-9.4
X1.1598Y-0.6
X1.6402Y-0.6
X2.5598Y-3.
X3.0402Y-3.
X4.6598Y-11.4
X5.1402Y-11.4
X0.4598Y-5.
X0.9402Y-5.
X6.7598Y-11.
X7.2402Y-11.
X1.1598Y-9.4
X1.6402Y-9.4
X2.5598Y-7.8
X3.0402Y-7.8
X4.6598Y-8.2
X5.1402Y-8.2
X0.4598Y-10.2
X0.9402Y-10.2
X7.4598Y-5.
X7.9402Y-5.
X4.6598Y-5.
X5.1402Y-5.
X7.4598Y-7.4
X7.9402Y-7.4
X4.6598Y-0.6
X5.1402Y-0.6
X6.7598Y-12.2
X7.2402Y-12.2
X3.9598Y-9.4
X4.4402Y-9.4
X6.7598Y-10.6
X7.2402Y-10.6
X3.9598Y-10.2
X4.4402Y-10.2
X6.7598Y-5.
X7.2402Y-5.
X3.9598Y-3.4
X4.4402Y-3.4
X6.7598Y-6.2
X7.2402Y-6.2
X3.9598Y-3.
X4.4402Y-3.
X6.7598Y-2.2
X7.2402Y-2.2
X1.8598Y-7.8
X2.3402Y-7.8
X4.6598Y-1.4
X5.1402Y-1.4
X6.0598Y-5.8
X6.5402Y-5.8
X1.8598Y-8.2
X2.3402Y-8.2
X3.2598Y-9.
X3.7402Y-9.
X5.3598Y-8.2
X5.8402Y-8.2
X1.8598Y-5.8
X2.3402Y-5.8
X3.2598Y-5.4
X3.7402Y-5.4
X6.0598Y-7.8
X6.5402Y-7.8
X1.8598Y-1.8
X2.3402Y-1.8
X3.2598Y-2.6
X3.7402Y-2.6
X6.0598Y-3.8
X6.5402Y-3.8
X8.1598Y-9.8
X8.6402Y-9.8
X1.1598Y-1.4
X1.6402Y-1.4
X2.5598Y-11.
X3.0402Y-11.
X6.0598Y-1.4
X6.5402Y-1.4
X8.1598Y-7.
X8.6402Y-7.
X1.1598Y-8.6
X1.6402Y-8.6
X2.5598Y-5.
X3.0402Y-5.
X5.3598Y-6.6
X5.8402Y-6.6
X0.4598Y-11.
X0.9402Y-11.
X6.0598Y-7.
X6.5402Y-7.
X8.1598Y-1.8
X8.6402Y-1.8
X1.1598Y-3.
X1.6402Y-3.
X3.2598Y-9.4
X3.7402Y-9.4
X5.3598Y-4.6
X5.8402Y-4.6
X0.4598Y-9.4
X0.9402Y-9.4
X0.4598Y-2.6
X0.9402Y-2.6
X7.4598Y-11.8
X7.9402Y-11.8
X1.1598Y-1.
X1.6402Y-1.
X2.5598Y-4.2
X3.0402Y-4.2
X5.3598Y-5.8
X5.8402Y-5.8
X0.4598Y-8.2
X0.9402Y-8.2
X6.7598Y-9.8
X7.2402Y-9.8
X1.8598Y-11.4
X2.3402Y-11.4
X4.6598Y-2.2
X5.1402Y-2.2
X0.4598Y-3.8
X0.9402Y-3.8
X7.4598Y-9.8
X7.9402Y-9.8
X2.5598Y-1.
X3.0402Y-1.
X4.6598Y-3.4
X5.1402Y-3.4
X7.4598Y-0.6
X7.9402Y-0.6
X4.6598Y-7.4
X5.1402Y-7.4
X7.4598Y-2.6
X7.9402Y-2.6
X3.9598Y-8.2
X4.4402Y-8.2
X7.4598Y-1.4
X7.9402Y-1.4
X4.6598Y-1.
X5.1402Y-1.
X6.7598Y-9.
X7.2402Y-9.
X3.9598Y-9.8
X4.4402Y-9.8
X6.7598Y-3.8
X7.2402Y-3.8
X3.9598Y-1.4
X4.4402Y-1.4
X6.7598Y-4.6
X7.2402Y-4.6
X3.9598Y-9.
X4.4402Y-9.
X6.0598Y-11.8
X6.5402Y-11.8
X1.8598Y-10.2
X2.3402Y-10.2
X3.9598Y-10.6
X4.4402Y-10.6
X6.0598Y-3.
X6.5402Y-3.
X1.8598Y-7.4
X2.3402Y-7.4
X3.2598Y-8.6
X3.7402Y-8.6
X5.3598Y-8.6
X5.8402Y-8.6
X1.8598Y-5.
X2.3402Y-5.
X3.2598Y-5.
X3.7402Y-5.
X6.0598Y-9.
X6.5402Y-9.
X1.8598Y-1.4
X2.3402Y-1.4
X3.2598Y-0.6
X3.7402Y-0.6
X6.0598Y-3.4
X6.5402Y-3.4
X8.1598Y-9.4
X8.6402Y-9.4
X1.1598Y-7.
X1.6402Y-7.
X2.5598Y-10.2
X3.0402Y-10.2
X5.3598Y-12.6
X5.8402Y-12.6
X8.1598Y-6.6
X8.6402Y-6.6
X2.5598Y-1.4
X3.0402Y-1.4
X5.3598Y-7.8
X5.8402Y-7.8
X0.4598Y-9.
X0.9402Y-9.
X5.3598Y-9.4
X5.8402Y-9.4
X7.4598Y-11.
X7.9402Y-11.
X1.1598Y-7.4
X1.6402Y-7.4
X2.5598Y-5.8
X3.0402Y-5.8
X5.3598Y-4.2
X5.8402Y-4.2
X0.4598Y-4.6
X0.9402Y-4.6
X0.4598Y-2.2
X0.9402Y-2.2
X8.1598Y-0.6
X8.6402Y-0.6
X1.1598Y-4.2
X1.6402Y-4.2
X2.5598Y-5.4
X3.0402Y-5.4
X5.3598Y-0.6
X5.8402Y-0.6
X0.4598Y-7.
X0.9402Y-7.
X7.4598Y-10.2
X7.9402Y-10.2
X1.8598Y-1.
X2.3402Y-1.
X3.2598Y-1.8
X3.7402Y-1.8
X4.6598Y-11.
X5.1402Y-11.
X7.4598Y-4.2
X7.9402Y-4.2
X2.5598Y-1.8
X3.0402Y-1.8
X4.6598Y-8.6
X5.1402Y-8.6
X6.7598Y-12.6
X7.2402Y-12.6
X4.6598Y-3.8
X5.1402Y-3.8
X7.4598Y-4.6
X7.9402Y-4.6
X3.9598Y-5.
X4.4402Y-5.
X7.4598Y-1.
X7.9402Y-1.
X3.9598Y-12.2
X4.4402Y-12.2
X6.7598Y-5.8
X7.2402Y-5.8
X3.9598Y-8.6
X4.4402Y-8.6
X6.7598Y-1.4
X7.2402Y-1.4
X3.9598Y-6.6
X4.4402Y-6.6
X6.7598Y-5.4
X7.2402Y-5.4
X3.9598Y-11.4
X4.4402Y-11.4
X6.7598Y-1.8
X7.2402Y-1.8
X1.8598Y-9.8
X2.3402Y-9.8
X3.9598Y-5.8
X4.4402Y-5.8
X6.0598Y-10.6
X6.5402Y-10.6
X8.1598Y-12.6
X8.6402Y-12.6
X1.8598Y-7.
X2.3402Y-7.
X3.2598Y-8.2
X3.7402Y-8.2
X6.0598Y-2.2
X6.5402Y-2.2
X1.8598Y-5.4
X2.3402Y-5.4
X3.2598Y-3.4
X3.7402Y-3.4
X5.3598Y-12.2
X5.8402Y-12.2
X1.8598Y-0.6
X2.3402Y-0.6
X3.2598Y-1.4
X3.7402Y-1.4
X6.0598Y-0.6
X6.5402Y-0.6
X8.1598Y-9.
X8.6402Y-9.
X2.5598Y-9.
X3.0402Y-9.
X6.0598Y-10.2
X6.5402Y-10.2
X8.1598Y-5.8
X8.6402Y-5.8
X1.1598Y-2.6
X1.6402Y-2.6
X2.5598Y-4.6
X3.0402Y-4.6
X5.3559Y-7.4
X5.8362Y-7.4
X7.4598Y-9.4
X7.9402Y-9.4
X1.1598Y-3.8
X1.6402Y-3.8
X2.5598Y-7.4
X3.0402Y-7.4
X5.3598Y-3.8
X5.8402Y-3.8
X0.4598Y-1.8
X0.9402Y-1.8
X7.4598Y-12.2
X7.9402Y-12.2
X1.1598Y-1.8
X1.6402Y-1.8
X1.8598Y-12.6
X2.3402Y-12.6
X4.6598Y-12.6
X5.1402Y-12.6
X0.4598Y-6.6
X0.9402Y-6.6
X7.4598Y-8.2
X7.9402Y-8.2
X1.1598Y-5.4
X1.6402Y-5.4
X2.5598Y-0.6
X3.0402Y-0.6
X4.6598Y-10.2
X5.1402Y-10.2
X0.4598Y-9.8
X0.9402Y-9.8
X7.4598Y-2.2
X7.9402Y-2.2
X2.5598Y-9.4
X3.0402Y-9.4
X4.6598Y-6.6
X5.1402Y-6.6
X8.1598Y-6.2
X8.6402Y-6.2
X4.6598Y-5.8
X5.1402Y-5.8
X7.4598Y-6.6
X7.9402Y-6.6
X3.9598Y-0.6
X4.4402Y-0.6
X6.7598Y-10.2
X7.2402Y-10.2
X3.9598Y-5.4
X4.4402Y-5.4
X6.7598Y-8.6
X7.2402Y-8.6
X3.9598Y-7.4
X4.4402Y-7.4
X6.7598Y-8.2
X7.2402Y-8.2
X3.2598Y-12.6
X3.7402Y-12.6
X6.7598Y-3.4
X7.2402Y-3.4
X4.6598Y-1.8
X5.1402Y-1.8
X6.7598Y-1.
X7.2402Y-1.
X1.8598Y-3.
X2.3402Y-3.
X3.2598Y-11.8
X3.7402Y-11.8
X6.0598Y-4.2
X6.5402Y-4.2
X8.1598Y-11.
X8.6402Y-11.
X1.8598Y-6.6
X2.3402Y-6.6
X3.2598Y-7.4
X3.7402Y-7.4
X6.0598Y-8.2
X6.5402Y-8.2
X8.1598Y-11.8
X8.6402Y-11.8
X1.8598Y-4.6
X2.3402Y-4.6
X3.2598Y-4.6
X3.7402Y-4.6
X5.3598Y-11.4
X5.8402Y-11.4
X8.1598Y-12.2
X8.6402Y-12.2
X1.1598Y-11.4
X1.6402Y-11.4
X2.5598Y-11.8
X3.0402Y-11.8
X6.0598Y-1.8
X6.5402Y-1.8
X8.1598Y-8.6
X8.6402Y-8.6
X1.1598Y-6.6
X1.6402Y-6.6
X2.5598Y-6.6
X3.0402Y-6.6
X0.4598Y-10.6
X0.9402Y-10.6
X6.0598Y-5.4
X6.5402Y-5.4
X8.1598Y-5.4
X8.6402Y-5.4
X1.1598Y-8.2
X1.6402Y-8.2
X2.5598Y-3.8
X3.0402Y-3.8
X5.3598Y-7.
X5.8402Y-7.
X0.4598Y-11.8
X0.9402Y-11.8
X0.4598Y-3.4
X0.9402Y-3.4
X7.4598Y-8.6
X7.9402Y-8.6
X1.1598Y-2.2
X1.6402Y-2.2
X3.2598Y-7.8
X3.7402Y-7.8
X5.3598Y-2.2
X5.8402Y-2.2
X0.4598Y-7.8
X0.9402Y-7.8
X0.4598Y-1.4
X0.9402Y-1.4
X7.4598Y-11.4
X7.9402Y-11.4
X1.1598Y-5.
X1.6402Y-5.
X3.2598Y-1.
X3.7402Y-1.
X4.6598Y-12.2
X5.1402Y-12.2
X0.4598Y-5.4
X0.9402Y-5.4
X7.4598Y-7.
X7.9402Y-7.
X1.1598Y-11.8
X1.6402Y-11.8
X2.5598Y-12.2
X3.0402Y-12.2
X4.6598Y-9.8
X5.1402Y-9.8
X8.1598Y-3.8
X8.6402Y-3.8
X2.5598Y-2.2
X3.0402Y-2.2
X4.6598Y-7.8
X5.1402Y-7.8
X7.4598Y-3.8
X7.9402Y-3.8
X4.6598Y-5.4
X5.1402Y-5.4
X7.4598Y-6.2
X7.9402Y-6.2
X3.9598Y-7.8
X4.4402Y-7.8
X7.4598Y-1.8
X7.9402Y-1.8
X3.9598Y-11.8
X4.4402Y-11.8
X6.7598Y-6.6
X7.2402Y-6.6
X3.9598Y-1.
X4.4402Y-1.
X6.7598Y-7.8
X7.2402Y-7.8
X3.2598Y-12.2
X3.7402Y-12.2
X6.7598Y-2.6
X7.2402Y-2.6
X3.9598Y-2.6
X4.4402Y-2.6
X0.4598Y-0.6
X0.9402Y-0.6
X6.0598Y-11.4
X6.5402Y-11.4
X1.8598Y-9.
X2.3402Y-9.
X3.2598Y-11.4
X3.7402Y-11.4
X5.3598Y-10.2
X5.8402Y-10.2
X1.8598Y-3.4
X2.3402Y-3.4
X3.2598Y-7.
X3.7402Y-7.
X6.0598Y-6.2
X6.5402Y-6.2
X8.1598Y-11.4
X8.6402Y-11.4
X1.8598Y-4.2
X2.3402Y-4.2
X3.2598Y-4.2
X3.7402Y-4.2
X5.3598Y-11.8
X5.8402Y-11.8
X1.1598Y-10.6
X1.6402Y-10.6
X2.5598Y-11.4
X3.0402Y-11.4
X6.0598Y-4.6
X6.5402Y-4.6
X8.1598Y-8.2
X8.6402Y-8.2
X2.5598Y-6.2
X3.0402Y-6.2
X5.3598Y-3.4
X5.8402Y-3.4
X0.4598Y-6.2
X0.9402Y-6.2
X5.3598Y-9.8
X5.8402Y-9.8
X8.1598Y-5.
X8.6402Y-5.
X1.1598Y-6.2
X1.6402Y-6.2
X1.8598Y-11.
X2.3402Y-11.
X5.3598Y-5.
X5.8402Y-5.
X0.4598Y-3.
X0.9402Y-3.
X8.1598Y-3.
X8.6402Y-3.
X3.2598Y-2.2
X3.7402Y-2.2
X5.3598Y-2.6
X5.8402Y-2.6
X0.4598Y-4.2
X0.9402Y-4.2
X7.4598Y-9.
X7.9402Y-9.
X1.1598Y-4.6
X1.6402Y-4.6
X1.8598Y-12.2
X2.3402Y-12.2
X4.6598Y-11.8
X5.1402Y-11.8
X0.4598Y-5.8
X0.9402Y-5.8
X7.4598Y-10.6
X7.9402Y-10.6
X1.1598Y-11.
X1.6402Y-11.
X2.5598Y-3.4
X3.0402Y-3.4
X4.6598Y-9.4
X5.1402Y-9.4
X0.4598Y-12.2
X0.9402Y-12.2
X8.1598Y-2.6
X8.6402Y-2.6
X4.6598Y-3.
X5.1402Y-3.
X6.7598Y-11.4
X7.2402Y-11.4
X4.6598Y-2.6
X5.1402Y-2.6
T0
M30
