G04 #@! TF.GenerationSoftware,KiCad,Pcbnew,(5.0.0)*
G04 #@! TF.CreationDate,2018-11-14T19:44:42+01:00*
G04 #@! TF.ProjectId,motivational board,6D6F7469766174696F6E616C20626F61,rev?*
G04 #@! TF.SameCoordinates,Original*
G04 #@! TF.FileFunction,Soldermask,Bot*
G04 #@! TF.FilePolarity,Negative*
%FSLAX46Y46*%
G04 Gerber Fmt 4.6, Leading zero omitted, Abs format (unit mm)*
G04 Created by KiCad (PCBNEW (5.0.0)) date 11/14/18 19:44:42*
%MOMM*%
%LPD*%
G01*
G04 APERTURE LIST*
%ADD10R,2.380000X4.360000*%
%ADD11O,2.380000X4.360000*%
%ADD12O,1.900000X2.900000*%
%ADD13R,1.900000X2.900000*%
%ADD14O,2.600000X3.900000*%
%ADD15C,4.700000*%
G04 APERTURE END LIST*
D10*
G04 #@! TO.C,J1*
X73660000Y-320040000D03*
D11*
X68660000Y-320040000D03*
G04 #@! TD*
D12*
G04 #@! TO.C,SW1*
X21780000Y-15240000D03*
D13*
X13780000Y-15240000D03*
D12*
X15780000Y-15240000D03*
X17780000Y-15240000D03*
D14*
X11680000Y-15240000D03*
X23880000Y-15240000D03*
G04 #@! TD*
G04 #@! TO.C,SW2*
X23880000Y-25400000D03*
X11680000Y-25400000D03*
D12*
X17780000Y-25400000D03*
X15780000Y-25400000D03*
D13*
X13780000Y-25400000D03*
D12*
X21780000Y-25400000D03*
G04 #@! TD*
G04 #@! TO.C,SW3*
X21780000Y-35560000D03*
D13*
X13780000Y-35560000D03*
D12*
X15780000Y-35560000D03*
X17780000Y-35560000D03*
D14*
X11680000Y-35560000D03*
X23880000Y-35560000D03*
G04 #@! TD*
D12*
G04 #@! TO.C,SW4*
X21780000Y-45720000D03*
D13*
X13780000Y-45720000D03*
D12*
X15780000Y-45720000D03*
X17780000Y-45720000D03*
D14*
X11680000Y-45720000D03*
X23880000Y-45720000D03*
G04 #@! TD*
G04 #@! TO.C,SW5*
X23880000Y-55880000D03*
X11680000Y-55880000D03*
D12*
X17780000Y-55880000D03*
X15780000Y-55880000D03*
D13*
X13780000Y-55880000D03*
D12*
X21780000Y-55880000D03*
G04 #@! TD*
G04 #@! TO.C,SW6*
X21780000Y-66040000D03*
D13*
X13780000Y-66040000D03*
D12*
X15780000Y-66040000D03*
X17780000Y-66040000D03*
D14*
X11680000Y-66040000D03*
X23880000Y-66040000D03*
G04 #@! TD*
D12*
G04 #@! TO.C,SW7*
X21780000Y-76200000D03*
D13*
X13780000Y-76200000D03*
D12*
X15780000Y-76200000D03*
X17780000Y-76200000D03*
D14*
X11680000Y-76200000D03*
X23880000Y-76200000D03*
G04 #@! TD*
G04 #@! TO.C,SW8*
X23880000Y-86360000D03*
X11680000Y-86360000D03*
D12*
X17780000Y-86360000D03*
X15780000Y-86360000D03*
D13*
X13780000Y-86360000D03*
D12*
X21780000Y-86360000D03*
G04 #@! TD*
D14*
G04 #@! TO.C,SW9*
X23880000Y-96520000D03*
X11680000Y-96520000D03*
D12*
X17780000Y-96520000D03*
X15780000Y-96520000D03*
D13*
X13780000Y-96520000D03*
D12*
X21780000Y-96520000D03*
G04 #@! TD*
D14*
G04 #@! TO.C,SW10*
X23880000Y-106680000D03*
X11680000Y-106680000D03*
D12*
X17780000Y-106680000D03*
X15780000Y-106680000D03*
D13*
X13780000Y-106680000D03*
D12*
X21780000Y-106680000D03*
G04 #@! TD*
D14*
G04 #@! TO.C,SW11*
X23880000Y-116840000D03*
X11680000Y-116840000D03*
D12*
X17780000Y-116840000D03*
X15780000Y-116840000D03*
D13*
X13780000Y-116840000D03*
D12*
X21780000Y-116840000D03*
G04 #@! TD*
D14*
G04 #@! TO.C,SW12*
X23880000Y-127000000D03*
X11680000Y-127000000D03*
D12*
X17780000Y-127000000D03*
X15780000Y-127000000D03*
D13*
X13780000Y-127000000D03*
D12*
X21780000Y-127000000D03*
G04 #@! TD*
G04 #@! TO.C,SW13*
X21780000Y-137160000D03*
D13*
X13780000Y-137160000D03*
D12*
X15780000Y-137160000D03*
X17780000Y-137160000D03*
D14*
X11680000Y-137160000D03*
X23880000Y-137160000D03*
G04 #@! TD*
D12*
G04 #@! TO.C,SW14*
X21780000Y-147320000D03*
D13*
X13780000Y-147320000D03*
D12*
X15780000Y-147320000D03*
X17780000Y-147320000D03*
D14*
X11680000Y-147320000D03*
X23880000Y-147320000D03*
G04 #@! TD*
D12*
G04 #@! TO.C,SW15*
X21780000Y-157480000D03*
D13*
X13780000Y-157480000D03*
D12*
X15780000Y-157480000D03*
X17780000Y-157480000D03*
D14*
X11680000Y-157480000D03*
X23880000Y-157480000D03*
G04 #@! TD*
D12*
G04 #@! TO.C,SW16*
X21780000Y-167640000D03*
D13*
X13780000Y-167640000D03*
D12*
X15780000Y-167640000D03*
X17780000Y-167640000D03*
D14*
X11680000Y-167640000D03*
X23880000Y-167640000D03*
G04 #@! TD*
G04 #@! TO.C,SW17*
X23880000Y-177800000D03*
X11680000Y-177800000D03*
D12*
X17780000Y-177800000D03*
X15780000Y-177800000D03*
D13*
X13780000Y-177800000D03*
D12*
X21780000Y-177800000D03*
G04 #@! TD*
D14*
G04 #@! TO.C,SW18*
X23880000Y-187960000D03*
X11680000Y-187960000D03*
D12*
X17780000Y-187960000D03*
X15780000Y-187960000D03*
D13*
X13780000Y-187960000D03*
D12*
X21780000Y-187960000D03*
G04 #@! TD*
D14*
G04 #@! TO.C,SW19*
X23880000Y-198120000D03*
X11680000Y-198120000D03*
D12*
X17780000Y-198120000D03*
X15780000Y-198120000D03*
D13*
X13780000Y-198120000D03*
D12*
X21780000Y-198120000D03*
G04 #@! TD*
D14*
G04 #@! TO.C,SW20*
X23880000Y-208280000D03*
X11680000Y-208280000D03*
D12*
X17780000Y-208280000D03*
X15780000Y-208280000D03*
D13*
X13780000Y-208280000D03*
D12*
X21780000Y-208280000D03*
G04 #@! TD*
G04 #@! TO.C,SW21*
X21780000Y-218440000D03*
D13*
X13780000Y-218440000D03*
D12*
X15780000Y-218440000D03*
X17780000Y-218440000D03*
D14*
X11680000Y-218440000D03*
X23880000Y-218440000D03*
G04 #@! TD*
D12*
G04 #@! TO.C,SW22*
X21780000Y-228600000D03*
D13*
X13780000Y-228600000D03*
D12*
X15780000Y-228600000D03*
X17780000Y-228600000D03*
D14*
X11680000Y-228600000D03*
X23880000Y-228600000D03*
G04 #@! TD*
D12*
G04 #@! TO.C,SW23*
X21780000Y-238760000D03*
D13*
X13780000Y-238760000D03*
D12*
X15780000Y-238760000D03*
X17780000Y-238760000D03*
D14*
X11680000Y-238760000D03*
X23880000Y-238760000D03*
G04 #@! TD*
D12*
G04 #@! TO.C,SW24*
X21780000Y-248920000D03*
D13*
X13780000Y-248920000D03*
D12*
X15780000Y-248920000D03*
X17780000Y-248920000D03*
D14*
X11680000Y-248920000D03*
X23880000Y-248920000D03*
G04 #@! TD*
D12*
G04 #@! TO.C,SW25*
X21780000Y-259080000D03*
D13*
X13780000Y-259080000D03*
D12*
X15780000Y-259080000D03*
X17780000Y-259080000D03*
D14*
X11680000Y-259080000D03*
X23880000Y-259080000D03*
G04 #@! TD*
G04 #@! TO.C,SW26*
X23880000Y-269240000D03*
X11680000Y-269240000D03*
D12*
X17780000Y-269240000D03*
X15780000Y-269240000D03*
D13*
X13780000Y-269240000D03*
D12*
X21780000Y-269240000D03*
G04 #@! TD*
D14*
G04 #@! TO.C,SW27*
X23880000Y-279400000D03*
X11680000Y-279400000D03*
D12*
X17780000Y-279400000D03*
X15780000Y-279400000D03*
D13*
X13780000Y-279400000D03*
D12*
X21780000Y-279400000D03*
G04 #@! TD*
G04 #@! TO.C,SW28*
X21780000Y-289560000D03*
D13*
X13780000Y-289560000D03*
D12*
X15780000Y-289560000D03*
X17780000Y-289560000D03*
D14*
X11680000Y-289560000D03*
X23880000Y-289560000D03*
G04 #@! TD*
G04 #@! TO.C,SW29*
X23880000Y-299720000D03*
X11680000Y-299720000D03*
D12*
X17780000Y-299720000D03*
X15780000Y-299720000D03*
D13*
X13780000Y-299720000D03*
D12*
X21780000Y-299720000D03*
G04 #@! TD*
D14*
G04 #@! TO.C,SW30*
X23880000Y-309880000D03*
X11680000Y-309880000D03*
D12*
X17780000Y-309880000D03*
X15780000Y-309880000D03*
D13*
X13780000Y-309880000D03*
D12*
X21780000Y-309880000D03*
G04 #@! TD*
G04 #@! TO.C,SW31*
X21780000Y-320040000D03*
D13*
X13780000Y-320040000D03*
D12*
X15780000Y-320040000D03*
X17780000Y-320040000D03*
D14*
X11680000Y-320040000D03*
X23880000Y-320040000D03*
G04 #@! TD*
G04 #@! TO.C,SW32*
X41660000Y-15240000D03*
X29460000Y-15240000D03*
D12*
X35560000Y-15240000D03*
X33560000Y-15240000D03*
D13*
X31560000Y-15240000D03*
D12*
X39560000Y-15240000D03*
G04 #@! TD*
D14*
G04 #@! TO.C,SW33*
X41660000Y-25400000D03*
X29460000Y-25400000D03*
D12*
X35560000Y-25400000D03*
X33560000Y-25400000D03*
D13*
X31560000Y-25400000D03*
D12*
X39560000Y-25400000D03*
G04 #@! TD*
G04 #@! TO.C,SW34*
X39560000Y-35560000D03*
D13*
X31560000Y-35560000D03*
D12*
X33560000Y-35560000D03*
X35560000Y-35560000D03*
D14*
X29460000Y-35560000D03*
X41660000Y-35560000D03*
G04 #@! TD*
G04 #@! TO.C,SW35*
X41660000Y-45720000D03*
X29460000Y-45720000D03*
D12*
X35560000Y-45720000D03*
X33560000Y-45720000D03*
D13*
X31560000Y-45720000D03*
D12*
X39560000Y-45720000D03*
G04 #@! TD*
D14*
G04 #@! TO.C,SW36*
X41660000Y-55880000D03*
X29460000Y-55880000D03*
D12*
X35560000Y-55880000D03*
X33560000Y-55880000D03*
D13*
X31560000Y-55880000D03*
D12*
X39560000Y-55880000D03*
G04 #@! TD*
G04 #@! TO.C,SW37*
X39560000Y-66040000D03*
D13*
X31560000Y-66040000D03*
D12*
X33560000Y-66040000D03*
X35560000Y-66040000D03*
D14*
X29460000Y-66040000D03*
X41660000Y-66040000D03*
G04 #@! TD*
G04 #@! TO.C,SW38*
X41660000Y-76200000D03*
X29460000Y-76200000D03*
D12*
X35560000Y-76200000D03*
X33560000Y-76200000D03*
D13*
X31560000Y-76200000D03*
D12*
X39560000Y-76200000D03*
G04 #@! TD*
D14*
G04 #@! TO.C,SW39*
X41660000Y-86360000D03*
X29460000Y-86360000D03*
D12*
X35560000Y-86360000D03*
X33560000Y-86360000D03*
D13*
X31560000Y-86360000D03*
D12*
X39560000Y-86360000D03*
G04 #@! TD*
G04 #@! TO.C,SW40*
X39560000Y-96520000D03*
D13*
X31560000Y-96520000D03*
D12*
X33560000Y-96520000D03*
X35560000Y-96520000D03*
D14*
X29460000Y-96520000D03*
X41660000Y-96520000D03*
G04 #@! TD*
G04 #@! TO.C,SW41*
X41660000Y-106680000D03*
X29460000Y-106680000D03*
D12*
X35560000Y-106680000D03*
X33560000Y-106680000D03*
D13*
X31560000Y-106680000D03*
D12*
X39560000Y-106680000D03*
G04 #@! TD*
D14*
G04 #@! TO.C,SW42*
X41660000Y-116840000D03*
X29460000Y-116840000D03*
D12*
X35560000Y-116840000D03*
X33560000Y-116840000D03*
D13*
X31560000Y-116840000D03*
D12*
X39560000Y-116840000D03*
G04 #@! TD*
D14*
G04 #@! TO.C,SW43*
X41660000Y-127000000D03*
X29460000Y-127000000D03*
D12*
X35560000Y-127000000D03*
X33560000Y-127000000D03*
D13*
X31560000Y-127000000D03*
D12*
X39560000Y-127000000D03*
G04 #@! TD*
D14*
G04 #@! TO.C,SW44*
X41660000Y-137160000D03*
X29460000Y-137160000D03*
D12*
X35560000Y-137160000D03*
X33560000Y-137160000D03*
D13*
X31560000Y-137160000D03*
D12*
X39560000Y-137160000D03*
G04 #@! TD*
D14*
G04 #@! TO.C,SW45*
X41660000Y-147320000D03*
X29460000Y-147320000D03*
D12*
X35560000Y-147320000D03*
X33560000Y-147320000D03*
D13*
X31560000Y-147320000D03*
D12*
X39560000Y-147320000D03*
G04 #@! TD*
G04 #@! TO.C,SW46*
X39560000Y-157480000D03*
D13*
X31560000Y-157480000D03*
D12*
X33560000Y-157480000D03*
X35560000Y-157480000D03*
D14*
X29460000Y-157480000D03*
X41660000Y-157480000D03*
G04 #@! TD*
G04 #@! TO.C,SW47*
X41660000Y-167640000D03*
X29460000Y-167640000D03*
D12*
X35560000Y-167640000D03*
X33560000Y-167640000D03*
D13*
X31560000Y-167640000D03*
D12*
X39560000Y-167640000D03*
G04 #@! TD*
D14*
G04 #@! TO.C,SW48*
X41660000Y-177800000D03*
X29460000Y-177800000D03*
D12*
X35560000Y-177800000D03*
X33560000Y-177800000D03*
D13*
X31560000Y-177800000D03*
D12*
X39560000Y-177800000D03*
G04 #@! TD*
G04 #@! TO.C,SW49*
X39560000Y-187960000D03*
D13*
X31560000Y-187960000D03*
D12*
X33560000Y-187960000D03*
X35560000Y-187960000D03*
D14*
X29460000Y-187960000D03*
X41660000Y-187960000D03*
G04 #@! TD*
G04 #@! TO.C,SW50*
X41660000Y-198120000D03*
X29460000Y-198120000D03*
D12*
X35560000Y-198120000D03*
X33560000Y-198120000D03*
D13*
X31560000Y-198120000D03*
D12*
X39560000Y-198120000D03*
G04 #@! TD*
D14*
G04 #@! TO.C,SW51*
X41660000Y-208280000D03*
X29460000Y-208280000D03*
D12*
X35560000Y-208280000D03*
X33560000Y-208280000D03*
D13*
X31560000Y-208280000D03*
D12*
X39560000Y-208280000D03*
G04 #@! TD*
G04 #@! TO.C,SW52*
X39560000Y-218440000D03*
D13*
X31560000Y-218440000D03*
D12*
X33560000Y-218440000D03*
X35560000Y-218440000D03*
D14*
X29460000Y-218440000D03*
X41660000Y-218440000D03*
G04 #@! TD*
G04 #@! TO.C,SW53*
X41660000Y-228600000D03*
X29460000Y-228600000D03*
D12*
X35560000Y-228600000D03*
X33560000Y-228600000D03*
D13*
X31560000Y-228600000D03*
D12*
X39560000Y-228600000D03*
G04 #@! TD*
D14*
G04 #@! TO.C,SW54*
X41660000Y-238760000D03*
X29460000Y-238760000D03*
D12*
X35560000Y-238760000D03*
X33560000Y-238760000D03*
D13*
X31560000Y-238760000D03*
D12*
X39560000Y-238760000D03*
G04 #@! TD*
G04 #@! TO.C,SW55*
X39560000Y-249000001D03*
D13*
X31560000Y-249000001D03*
D12*
X33560000Y-249000001D03*
X35560000Y-249000001D03*
D14*
X29460000Y-249000001D03*
X41660000Y-249000001D03*
G04 #@! TD*
G04 #@! TO.C,SW56*
X41660000Y-259080000D03*
X29460000Y-259080000D03*
D12*
X35560000Y-259080000D03*
X33560000Y-259080000D03*
D13*
X31560000Y-259080000D03*
D12*
X39560000Y-259080000D03*
G04 #@! TD*
D14*
G04 #@! TO.C,SW57*
X41660000Y-269240000D03*
X29460000Y-269240000D03*
D12*
X35560000Y-269240000D03*
X33560000Y-269240000D03*
D13*
X31560000Y-269240000D03*
D12*
X39560000Y-269240000D03*
G04 #@! TD*
G04 #@! TO.C,SW58*
X39560000Y-279400000D03*
D13*
X31560000Y-279400000D03*
D12*
X33560000Y-279400000D03*
X35560000Y-279400000D03*
D14*
X29460000Y-279400000D03*
X41660000Y-279400000D03*
G04 #@! TD*
G04 #@! TO.C,SW59*
X41660000Y-289560000D03*
X29460000Y-289560000D03*
D12*
X35560000Y-289560000D03*
X33560000Y-289560000D03*
D13*
X31560000Y-289560000D03*
D12*
X39560000Y-289560000D03*
G04 #@! TD*
D14*
G04 #@! TO.C,SW60*
X41660000Y-299720000D03*
X29460000Y-299720000D03*
D12*
X35560000Y-299720000D03*
X33560000Y-299720000D03*
D13*
X31560000Y-299720000D03*
D12*
X39560000Y-299720000D03*
G04 #@! TD*
G04 #@! TO.C,SW61*
X57340000Y-15240000D03*
D13*
X49340000Y-15240000D03*
D12*
X51340000Y-15240000D03*
X53340000Y-15240000D03*
D14*
X47240000Y-15240000D03*
X59440000Y-15240000D03*
G04 #@! TD*
G04 #@! TO.C,SW62*
X59440000Y-25400000D03*
X47240000Y-25400000D03*
D12*
X53340000Y-25400000D03*
X51340000Y-25400000D03*
D13*
X49340000Y-25400000D03*
D12*
X57340000Y-25400000D03*
G04 #@! TD*
D14*
G04 #@! TO.C,SW63*
X59440000Y-35560000D03*
X47240000Y-35560000D03*
D12*
X53340000Y-35560000D03*
X51340000Y-35560000D03*
D13*
X49340000Y-35560000D03*
D12*
X57340000Y-35560000D03*
G04 #@! TD*
G04 #@! TO.C,SW64*
X57340000Y-45720000D03*
D13*
X49340000Y-45720000D03*
D12*
X51340000Y-45720000D03*
X53340000Y-45720000D03*
D14*
X47240000Y-45720000D03*
X59440000Y-45720000D03*
G04 #@! TD*
G04 #@! TO.C,SW65*
X59440000Y-55880000D03*
X47240000Y-55880000D03*
D12*
X53340000Y-55880000D03*
X51340000Y-55880000D03*
D13*
X49340000Y-55880000D03*
D12*
X57340000Y-55880000D03*
G04 #@! TD*
D14*
G04 #@! TO.C,SW66*
X59440000Y-66040000D03*
X47240000Y-66040000D03*
D12*
X53340000Y-66040000D03*
X51340000Y-66040000D03*
D13*
X49340000Y-66040000D03*
D12*
X57340000Y-66040000D03*
G04 #@! TD*
G04 #@! TO.C,SW67*
X57340000Y-76200000D03*
D13*
X49340000Y-76200000D03*
D12*
X51340000Y-76200000D03*
X53340000Y-76200000D03*
D14*
X47240000Y-76200000D03*
X59440000Y-76200000D03*
G04 #@! TD*
G04 #@! TO.C,SW68*
X59440000Y-86360000D03*
X47240000Y-86360000D03*
D12*
X53340000Y-86360000D03*
X51340000Y-86360000D03*
D13*
X49340000Y-86360000D03*
D12*
X57340000Y-86360000D03*
G04 #@! TD*
D14*
G04 #@! TO.C,SW69*
X59440000Y-96520000D03*
X47240000Y-96520000D03*
D12*
X53340000Y-96520000D03*
X51340000Y-96520000D03*
D13*
X49340000Y-96520000D03*
D12*
X57340000Y-96520000D03*
G04 #@! TD*
G04 #@! TO.C,SW70*
X57340000Y-106680000D03*
D13*
X49340000Y-106680000D03*
D12*
X51340000Y-106680000D03*
X53340000Y-106680000D03*
D14*
X47240000Y-106680000D03*
X59440000Y-106680000D03*
G04 #@! TD*
G04 #@! TO.C,SW71*
X59440000Y-116840000D03*
X47240000Y-116840000D03*
D12*
X53340000Y-116840000D03*
X51340000Y-116840000D03*
D13*
X49340000Y-116840000D03*
D12*
X57340000Y-116840000D03*
G04 #@! TD*
G04 #@! TO.C,SW72*
X57340000Y-127000000D03*
D13*
X49340000Y-127000000D03*
D12*
X51340000Y-127000000D03*
X53340000Y-127000000D03*
D14*
X47240000Y-127000000D03*
X59440000Y-127000000D03*
G04 #@! TD*
D12*
G04 #@! TO.C,SW73*
X57340000Y-137160000D03*
D13*
X49340000Y-137160000D03*
D12*
X51340000Y-137160000D03*
X53340000Y-137160000D03*
D14*
X47240000Y-137160000D03*
X59440000Y-137160000D03*
G04 #@! TD*
D12*
G04 #@! TO.C,SW74*
X57340000Y-147320000D03*
D13*
X49340000Y-147320000D03*
D12*
X51340000Y-147320000D03*
X53340000Y-147320000D03*
D14*
X47240000Y-147320000D03*
X59440000Y-147320000D03*
G04 #@! TD*
D12*
G04 #@! TO.C,SW75*
X57340000Y-157480000D03*
D13*
X49340000Y-157480000D03*
D12*
X51340000Y-157480000D03*
X53340000Y-157480000D03*
D14*
X47240000Y-157480000D03*
X59440000Y-157480000D03*
G04 #@! TD*
G04 #@! TO.C,SW76*
X59440000Y-167640000D03*
X47240000Y-167640000D03*
D12*
X53340000Y-167640000D03*
X51340000Y-167640000D03*
D13*
X49340000Y-167640000D03*
D12*
X57340000Y-167640000D03*
G04 #@! TD*
D14*
G04 #@! TO.C,SW77*
X59440000Y-177800000D03*
X47240000Y-177800000D03*
D12*
X53340000Y-177800000D03*
X51340000Y-177800000D03*
D13*
X49340000Y-177800000D03*
D12*
X57340000Y-177800000D03*
G04 #@! TD*
D14*
G04 #@! TO.C,SW78*
X59440000Y-187960000D03*
X47240000Y-187960000D03*
D12*
X53340000Y-187960000D03*
X51340000Y-187960000D03*
D13*
X49340000Y-187960000D03*
D12*
X57340000Y-187960000D03*
G04 #@! TD*
G04 #@! TO.C,SW79*
X57340000Y-198120000D03*
D13*
X49340000Y-198120000D03*
D12*
X51340000Y-198120000D03*
X53340000Y-198120000D03*
D14*
X47240000Y-198120000D03*
X59440000Y-198120000D03*
G04 #@! TD*
D12*
G04 #@! TO.C,SW80*
X57340000Y-208280000D03*
D13*
X49340000Y-208280000D03*
D12*
X51340000Y-208280000D03*
X53340000Y-208280000D03*
D14*
X47240000Y-208280000D03*
X59440000Y-208280000D03*
G04 #@! TD*
G04 #@! TO.C,SW81*
X59440000Y-218440000D03*
X47240000Y-218440000D03*
D12*
X53340000Y-218440000D03*
X51340000Y-218440000D03*
D13*
X49340000Y-218440000D03*
D12*
X57340000Y-218440000D03*
G04 #@! TD*
D14*
G04 #@! TO.C,SW82*
X59440000Y-228600000D03*
X47240000Y-228600000D03*
D12*
X53340000Y-228600000D03*
X51340000Y-228600000D03*
D13*
X49340000Y-228600000D03*
D12*
X57340000Y-228600000D03*
G04 #@! TD*
D14*
G04 #@! TO.C,SW83*
X59440000Y-238760000D03*
X47240000Y-238760000D03*
D12*
X53340000Y-238760000D03*
X51340000Y-238760000D03*
D13*
X49340000Y-238760000D03*
D12*
X57340000Y-238760000D03*
G04 #@! TD*
D14*
G04 #@! TO.C,SW84*
X59440000Y-248920000D03*
X47240000Y-248920000D03*
D12*
X53340000Y-248920000D03*
X51340000Y-248920000D03*
D13*
X49340000Y-248920000D03*
D12*
X57340000Y-248920000D03*
G04 #@! TD*
G04 #@! TO.C,SW85*
X57340000Y-259080000D03*
D13*
X49340000Y-259080000D03*
D12*
X51340000Y-259080000D03*
X53340000Y-259080000D03*
D14*
X47240000Y-259080000D03*
X59440000Y-259080000D03*
G04 #@! TD*
D12*
G04 #@! TO.C,SW86*
X57340000Y-269240000D03*
D13*
X49340000Y-269240000D03*
D12*
X51340000Y-269240000D03*
X53340000Y-269240000D03*
D14*
X47240000Y-269240000D03*
X59440000Y-269240000D03*
G04 #@! TD*
D12*
G04 #@! TO.C,SW87*
X57340000Y-279400000D03*
D13*
X49340000Y-279400000D03*
D12*
X51340000Y-279400000D03*
X53340000Y-279400000D03*
D14*
X47240000Y-279400000D03*
X59440000Y-279400000D03*
G04 #@! TD*
G04 #@! TO.C,SW88*
X59440000Y-289560000D03*
X47240000Y-289560000D03*
D12*
X53340000Y-289560000D03*
X51340000Y-289560000D03*
D13*
X49340000Y-289560000D03*
D12*
X57340000Y-289560000D03*
G04 #@! TD*
G04 #@! TO.C,SW89*
X57340000Y-299720000D03*
D13*
X49340000Y-299720000D03*
D12*
X51340000Y-299720000D03*
X53340000Y-299720000D03*
D14*
X47240000Y-299720000D03*
X59440000Y-299720000D03*
G04 #@! TD*
D12*
G04 #@! TO.C,SW90*
X57340000Y-309880000D03*
D13*
X49340000Y-309880000D03*
D12*
X51340000Y-309880000D03*
X53340000Y-309880000D03*
D14*
X47240000Y-309880000D03*
X59440000Y-309880000D03*
G04 #@! TD*
G04 #@! TO.C,SW91*
X59440000Y-320040000D03*
X47240000Y-320040000D03*
D12*
X53340000Y-320040000D03*
X51340000Y-320040000D03*
D13*
X49340000Y-320040000D03*
D12*
X57340000Y-320040000D03*
G04 #@! TD*
G04 #@! TO.C,SW92*
X75120000Y-15240000D03*
D13*
X67120000Y-15240000D03*
D12*
X69120000Y-15240000D03*
X71120000Y-15240000D03*
D14*
X65020000Y-15240000D03*
X77220000Y-15240000D03*
G04 #@! TD*
D12*
G04 #@! TO.C,SW93*
X75120000Y-25400000D03*
D13*
X67120000Y-25400000D03*
D12*
X69120000Y-25400000D03*
X71120000Y-25400000D03*
D14*
X65020000Y-25400000D03*
X77220000Y-25400000D03*
G04 #@! TD*
G04 #@! TO.C,SW94*
X77220000Y-35560000D03*
X65020000Y-35560000D03*
D12*
X71120000Y-35560000D03*
X69120000Y-35560000D03*
D13*
X67120000Y-35560000D03*
D12*
X75120000Y-35560000D03*
G04 #@! TD*
G04 #@! TO.C,SW95*
X75120000Y-45720000D03*
D13*
X67120000Y-45720000D03*
D12*
X69120000Y-45720000D03*
X71120000Y-45720000D03*
D14*
X65020000Y-45720000D03*
X77220000Y-45720000D03*
G04 #@! TD*
D12*
G04 #@! TO.C,SW96*
X75120000Y-55880000D03*
D13*
X67120000Y-55880000D03*
D12*
X69120000Y-55880000D03*
X71120000Y-55880000D03*
D14*
X65020000Y-55880000D03*
X77220000Y-55880000D03*
G04 #@! TD*
G04 #@! TO.C,SW97*
X77220000Y-66040000D03*
X65020000Y-66040000D03*
D12*
X71120000Y-66040000D03*
X69120000Y-66040000D03*
D13*
X67120000Y-66040000D03*
D12*
X75120000Y-66040000D03*
G04 #@! TD*
G04 #@! TO.C,SW98*
X75120000Y-76200000D03*
D13*
X67120000Y-76200000D03*
D12*
X69120000Y-76200000D03*
X71120000Y-76200000D03*
D14*
X65020000Y-76200000D03*
X77220000Y-76200000D03*
G04 #@! TD*
D12*
G04 #@! TO.C,SW99*
X75120000Y-86360000D03*
D13*
X67120000Y-86360000D03*
D12*
X69120000Y-86360000D03*
X71120000Y-86360000D03*
D14*
X65020000Y-86360000D03*
X77220000Y-86360000D03*
G04 #@! TD*
G04 #@! TO.C,SW100*
X77220000Y-96520000D03*
X65020000Y-96520000D03*
D12*
X71120000Y-96520000D03*
X69120000Y-96520000D03*
D13*
X67120000Y-96520000D03*
D12*
X75120000Y-96520000D03*
G04 #@! TD*
G04 #@! TO.C,SW101*
X75120000Y-106680000D03*
D13*
X67120000Y-106680000D03*
D12*
X69120000Y-106680000D03*
X71120000Y-106680000D03*
D14*
X65020000Y-106680000D03*
X77220000Y-106680000D03*
G04 #@! TD*
D12*
G04 #@! TO.C,SW102*
X75120000Y-116840000D03*
D13*
X67120000Y-116840000D03*
D12*
X69120000Y-116840000D03*
X71120000Y-116840000D03*
D14*
X65020000Y-116840000D03*
X77220000Y-116840000D03*
G04 #@! TD*
G04 #@! TO.C,SW103*
X77220000Y-127000000D03*
X65020000Y-127000000D03*
D12*
X71120000Y-127000000D03*
X69120000Y-127000000D03*
D13*
X67120000Y-127000000D03*
D12*
X75120000Y-127000000D03*
G04 #@! TD*
G04 #@! TO.C,SW104*
X75120000Y-137160000D03*
D13*
X67120000Y-137160000D03*
D12*
X69120000Y-137160000D03*
X71120000Y-137160000D03*
D14*
X65020000Y-137160000D03*
X77220000Y-137160000D03*
G04 #@! TD*
D12*
G04 #@! TO.C,SW105*
X75120000Y-147320000D03*
D13*
X67120000Y-147320000D03*
D12*
X69120000Y-147320000D03*
X71120000Y-147320000D03*
D14*
X65020000Y-147320000D03*
X77220000Y-147320000D03*
G04 #@! TD*
G04 #@! TO.C,SW106*
X77220000Y-157480000D03*
X65020000Y-157480000D03*
D12*
X71120000Y-157480000D03*
X69120000Y-157480000D03*
D13*
X67120000Y-157480000D03*
D12*
X75120000Y-157480000D03*
G04 #@! TD*
G04 #@! TO.C,SW107*
X75120000Y-167640000D03*
D13*
X67120000Y-167640000D03*
D12*
X69120000Y-167640000D03*
X71120000Y-167640000D03*
D14*
X65020000Y-167640000D03*
X77220000Y-167640000D03*
G04 #@! TD*
D12*
G04 #@! TO.C,SW108*
X75120000Y-177800000D03*
D13*
X67120000Y-177800000D03*
D12*
X69120000Y-177800000D03*
X71120000Y-177800000D03*
D14*
X65020000Y-177800000D03*
X77220000Y-177800000D03*
G04 #@! TD*
G04 #@! TO.C,SW109*
X77220000Y-187960000D03*
X65020000Y-187960000D03*
D12*
X71120000Y-187960000D03*
X69120000Y-187960000D03*
D13*
X67120000Y-187960000D03*
D12*
X75120000Y-187960000D03*
G04 #@! TD*
D14*
G04 #@! TO.C,SW110*
X77220000Y-198120000D03*
X65020000Y-198120000D03*
D12*
X71120000Y-198120000D03*
X69120000Y-198120000D03*
D13*
X67120000Y-198120000D03*
D12*
X75120000Y-198120000D03*
G04 #@! TD*
D14*
G04 #@! TO.C,SW111*
X77220000Y-208280000D03*
X65020000Y-208280000D03*
D12*
X71120000Y-208280000D03*
X69120000Y-208280000D03*
D13*
X67120000Y-208280000D03*
D12*
X75120000Y-208280000D03*
G04 #@! TD*
G04 #@! TO.C,SW112*
X75120000Y-218440000D03*
D13*
X67120000Y-218440000D03*
D12*
X69120000Y-218440000D03*
X71120000Y-218440000D03*
D14*
X65020000Y-218440000D03*
X77220000Y-218440000D03*
G04 #@! TD*
G04 #@! TO.C,SW113*
X77220000Y-228600000D03*
X65020000Y-228600000D03*
D12*
X71120000Y-228600000D03*
X69120000Y-228600000D03*
D13*
X67120000Y-228600000D03*
D12*
X75120000Y-228600000D03*
G04 #@! TD*
D14*
G04 #@! TO.C,SW114*
X77220000Y-238760000D03*
X65020000Y-238760000D03*
D12*
X71120000Y-238760000D03*
X69120000Y-238760000D03*
D13*
X67120000Y-238760000D03*
D12*
X75120000Y-238760000D03*
G04 #@! TD*
G04 #@! TO.C,SW115*
X75120000Y-248920000D03*
D13*
X67120000Y-248920000D03*
D12*
X69120000Y-248920000D03*
X71120000Y-248920000D03*
D14*
X65020000Y-248920000D03*
X77220000Y-248920000D03*
G04 #@! TD*
G04 #@! TO.C,SW116*
X77220000Y-259080000D03*
X65020000Y-259080000D03*
D12*
X71120000Y-259080000D03*
X69120000Y-259080000D03*
D13*
X67120000Y-259080000D03*
D12*
X75120000Y-259080000D03*
G04 #@! TD*
D14*
G04 #@! TO.C,SW117*
X77220000Y-269240000D03*
X65020000Y-269240000D03*
D12*
X71120000Y-269240000D03*
X69120000Y-269240000D03*
D13*
X67120000Y-269240000D03*
D12*
X75120000Y-269240000D03*
G04 #@! TD*
G04 #@! TO.C,SW118*
X75120000Y-279400000D03*
D13*
X67120000Y-279400000D03*
D12*
X69120000Y-279400000D03*
X71120000Y-279400000D03*
D14*
X65020000Y-279400000D03*
X77220000Y-279400000D03*
G04 #@! TD*
G04 #@! TO.C,SW119*
X77220000Y-289560000D03*
X65020000Y-289560000D03*
D12*
X71120000Y-289560000D03*
X69120000Y-289560000D03*
D13*
X67120000Y-289560000D03*
D12*
X75120000Y-289560000D03*
G04 #@! TD*
D14*
G04 #@! TO.C,SW120*
X77220000Y-299720000D03*
X65020000Y-299720000D03*
D12*
X71120000Y-299720000D03*
X69120000Y-299720000D03*
D13*
X67120000Y-299720000D03*
D12*
X75120000Y-299720000D03*
G04 #@! TD*
G04 #@! TO.C,SW121*
X75120000Y-309880000D03*
D13*
X67120000Y-309880000D03*
D12*
X69120000Y-309880000D03*
X71120000Y-309880000D03*
D14*
X65020000Y-309880000D03*
X77220000Y-309880000D03*
G04 #@! TD*
G04 #@! TO.C,SW122*
X95000000Y-15240000D03*
X82800000Y-15240000D03*
D12*
X88900000Y-15240000D03*
X86900000Y-15240000D03*
D13*
X84900000Y-15240000D03*
D12*
X92900000Y-15240000D03*
G04 #@! TD*
D14*
G04 #@! TO.C,SW123*
X95000000Y-25400000D03*
X82800000Y-25400000D03*
D12*
X88900000Y-25400000D03*
X86900000Y-25400000D03*
D13*
X84900000Y-25400000D03*
D12*
X92900000Y-25400000D03*
G04 #@! TD*
G04 #@! TO.C,SW124*
X92900000Y-35560000D03*
D13*
X84900000Y-35560000D03*
D12*
X86900000Y-35560000D03*
X88900000Y-35560000D03*
D14*
X82800000Y-35560000D03*
X95000000Y-35560000D03*
G04 #@! TD*
G04 #@! TO.C,SW125*
X95000000Y-45720000D03*
X82800000Y-45720000D03*
D12*
X88900000Y-45720000D03*
X86900000Y-45720000D03*
D13*
X84900000Y-45720000D03*
D12*
X92900000Y-45720000D03*
G04 #@! TD*
D14*
G04 #@! TO.C,SW126*
X95000000Y-55880000D03*
X82800000Y-55880000D03*
D12*
X88900000Y-55880000D03*
X86900000Y-55880000D03*
D13*
X84900000Y-55880000D03*
D12*
X92900000Y-55880000D03*
G04 #@! TD*
G04 #@! TO.C,SW127*
X92900000Y-66040000D03*
D13*
X84900000Y-66040000D03*
D12*
X86900000Y-66040000D03*
X88900000Y-66040000D03*
D14*
X82800000Y-66040000D03*
X95000000Y-66040000D03*
G04 #@! TD*
G04 #@! TO.C,SW128*
X95000000Y-76200000D03*
X82800000Y-76200000D03*
D12*
X88900000Y-76200000D03*
X86900000Y-76200000D03*
D13*
X84900000Y-76200000D03*
D12*
X92900000Y-76200000D03*
G04 #@! TD*
D14*
G04 #@! TO.C,SW129*
X95000000Y-86360000D03*
X82800000Y-86360000D03*
D12*
X88900000Y-86360000D03*
X86900000Y-86360000D03*
D13*
X84900000Y-86360000D03*
D12*
X92900000Y-86360000D03*
G04 #@! TD*
G04 #@! TO.C,SW130*
X92900000Y-96520000D03*
D13*
X84900000Y-96520000D03*
D12*
X86900000Y-96520000D03*
X88900000Y-96520000D03*
D14*
X82800000Y-96520000D03*
X95000000Y-96520000D03*
G04 #@! TD*
G04 #@! TO.C,SW131*
X95000000Y-106680000D03*
X82800000Y-106680000D03*
D12*
X88900000Y-106680000D03*
X86900000Y-106680000D03*
D13*
X84900000Y-106680000D03*
D12*
X92900000Y-106680000D03*
G04 #@! TD*
D14*
G04 #@! TO.C,SW132*
X95000000Y-116840000D03*
X82800000Y-116840000D03*
D12*
X88900000Y-116840000D03*
X86900000Y-116840000D03*
D13*
X84900000Y-116840000D03*
D12*
X92900000Y-116840000D03*
G04 #@! TD*
G04 #@! TO.C,SW133*
X92900000Y-127000000D03*
D13*
X84900000Y-127000000D03*
D12*
X86900000Y-127000000D03*
X88900000Y-127000000D03*
D14*
X82800000Y-127000000D03*
X95000000Y-127000000D03*
G04 #@! TD*
G04 #@! TO.C,SW134*
X95000000Y-137160000D03*
X82800000Y-137160000D03*
D12*
X88900000Y-137160000D03*
X86900000Y-137160000D03*
D13*
X84900000Y-137160000D03*
D12*
X92900000Y-137160000D03*
G04 #@! TD*
D14*
G04 #@! TO.C,SW135*
X95000000Y-147320000D03*
X82800000Y-147320000D03*
D12*
X88900000Y-147320000D03*
X86900000Y-147320000D03*
D13*
X84900000Y-147320000D03*
D12*
X92900000Y-147320000D03*
G04 #@! TD*
G04 #@! TO.C,SW136*
X92900000Y-157480000D03*
D13*
X84900000Y-157480000D03*
D12*
X86900000Y-157480000D03*
X88900000Y-157480000D03*
D14*
X82800000Y-157480000D03*
X95000000Y-157480000D03*
G04 #@! TD*
G04 #@! TO.C,SW137*
X95000000Y-167640000D03*
X82800000Y-167640000D03*
D12*
X88900000Y-167640000D03*
X86900000Y-167640000D03*
D13*
X84900000Y-167640000D03*
D12*
X92900000Y-167640000D03*
G04 #@! TD*
D14*
G04 #@! TO.C,SW138*
X95000000Y-177800000D03*
X82800000Y-177800000D03*
D12*
X88900000Y-177800000D03*
X86900000Y-177800000D03*
D13*
X84900000Y-177800000D03*
D12*
X92900000Y-177800000D03*
G04 #@! TD*
D14*
G04 #@! TO.C,SW139*
X95000000Y-187960000D03*
X82800000Y-187960000D03*
D12*
X88900000Y-187960000D03*
X86900000Y-187960000D03*
D13*
X84900000Y-187960000D03*
D12*
X92900000Y-187960000D03*
G04 #@! TD*
G04 #@! TO.C,SW140*
X92900000Y-198120000D03*
D13*
X84900000Y-198120000D03*
D12*
X86900000Y-198120000D03*
X88900000Y-198120000D03*
D14*
X82800000Y-198120000D03*
X95000000Y-198120000D03*
G04 #@! TD*
D12*
G04 #@! TO.C,SW141*
X92900000Y-208280000D03*
D13*
X84900000Y-208280000D03*
D12*
X86900000Y-208280000D03*
X88900000Y-208280000D03*
D14*
X82800000Y-208280000D03*
X95000000Y-208280000D03*
G04 #@! TD*
G04 #@! TO.C,SW142*
X95000000Y-218440000D03*
X82800000Y-218440000D03*
D12*
X88900000Y-218440000D03*
X86900000Y-218440000D03*
D13*
X84900000Y-218440000D03*
D12*
X92900000Y-218440000D03*
G04 #@! TD*
G04 #@! TO.C,SW143*
X92900000Y-228600000D03*
D13*
X84900000Y-228600000D03*
D12*
X86900000Y-228600000D03*
X88900000Y-228600000D03*
D14*
X82800000Y-228600000D03*
X95000000Y-228600000D03*
G04 #@! TD*
D12*
G04 #@! TO.C,SW144*
X92900000Y-238760000D03*
D13*
X84900000Y-238760000D03*
D12*
X86900000Y-238760000D03*
X88900000Y-238760000D03*
D14*
X82800000Y-238760000D03*
X95000000Y-238760000D03*
G04 #@! TD*
G04 #@! TO.C,SW145*
X95000000Y-248920000D03*
X82800000Y-248920000D03*
D12*
X88900000Y-248920000D03*
X86900000Y-248920000D03*
D13*
X84900000Y-248920000D03*
D12*
X92900000Y-248920000D03*
G04 #@! TD*
G04 #@! TO.C,SW146*
X92900000Y-259080000D03*
D13*
X84900000Y-259080000D03*
D12*
X86900000Y-259080000D03*
X88900000Y-259080000D03*
D14*
X82800000Y-259080000D03*
X95000000Y-259080000D03*
G04 #@! TD*
D12*
G04 #@! TO.C,SW147*
X92900000Y-269240000D03*
D13*
X84900000Y-269240000D03*
D12*
X86900000Y-269240000D03*
X88900000Y-269240000D03*
D14*
X82800000Y-269240000D03*
X95000000Y-269240000D03*
G04 #@! TD*
G04 #@! TO.C,SW148*
X95000000Y-279400000D03*
X82800000Y-279400000D03*
D12*
X88900000Y-279400000D03*
X86900000Y-279400000D03*
D13*
X84900000Y-279400000D03*
D12*
X92900000Y-279400000D03*
G04 #@! TD*
G04 #@! TO.C,SW149*
X92900000Y-289560000D03*
D13*
X84900000Y-289560000D03*
D12*
X86900000Y-289560000D03*
X88900000Y-289560000D03*
D14*
X82800000Y-289560000D03*
X95000000Y-289560000D03*
G04 #@! TD*
D12*
G04 #@! TO.C,SW150*
X92900000Y-299720000D03*
D13*
X84900000Y-299720000D03*
D12*
X86900000Y-299720000D03*
X88900000Y-299720000D03*
D14*
X82800000Y-299720000D03*
X95000000Y-299720000D03*
G04 #@! TD*
G04 #@! TO.C,SW151*
X95000000Y-309880000D03*
X82800000Y-309880000D03*
D12*
X88900000Y-309880000D03*
X86900000Y-309880000D03*
D13*
X84900000Y-309880000D03*
D12*
X92900000Y-309880000D03*
G04 #@! TD*
G04 #@! TO.C,SW152*
X92900000Y-320040000D03*
D13*
X84900000Y-320040000D03*
D12*
X86900000Y-320040000D03*
X88900000Y-320040000D03*
D14*
X82800000Y-320040000D03*
X95000000Y-320040000D03*
G04 #@! TD*
D12*
G04 #@! TO.C,SW153*
X110680000Y-15240000D03*
D13*
X102680000Y-15240000D03*
D12*
X104680000Y-15240000D03*
X106680000Y-15240000D03*
D14*
X100580000Y-15240000D03*
X112780000Y-15240000D03*
G04 #@! TD*
G04 #@! TO.C,SW154*
X112780000Y-25400000D03*
X100580000Y-25400000D03*
D12*
X106680000Y-25400000D03*
X104680000Y-25400000D03*
D13*
X102680000Y-25400000D03*
D12*
X110680000Y-25400000D03*
G04 #@! TD*
G04 #@! TO.C,SW155*
X110680000Y-35560000D03*
D13*
X102680000Y-35560000D03*
D12*
X104680000Y-35560000D03*
X106680000Y-35560000D03*
D14*
X100580000Y-35560000D03*
X112780000Y-35560000D03*
G04 #@! TD*
D12*
G04 #@! TO.C,SW156*
X110680000Y-45720000D03*
D13*
X102680000Y-45720000D03*
D12*
X104680000Y-45720000D03*
X106680000Y-45720000D03*
D14*
X100580000Y-45720000D03*
X112780000Y-45720000D03*
G04 #@! TD*
G04 #@! TO.C,SW157*
X112780000Y-55880000D03*
X100580000Y-55880000D03*
D12*
X106680000Y-55880000D03*
X104680000Y-55880000D03*
D13*
X102680000Y-55880000D03*
D12*
X110680000Y-55880000D03*
G04 #@! TD*
G04 #@! TO.C,SW158*
X110680000Y-66040000D03*
D13*
X102680000Y-66040000D03*
D12*
X104680000Y-66040000D03*
X106680000Y-66040000D03*
D14*
X100580000Y-66040000D03*
X112780000Y-66040000D03*
G04 #@! TD*
D12*
G04 #@! TO.C,SW159*
X110680000Y-76200000D03*
D13*
X102680000Y-76200000D03*
D12*
X104680000Y-76200000D03*
X106680000Y-76200000D03*
D14*
X100580000Y-76200000D03*
X112780000Y-76200000D03*
G04 #@! TD*
G04 #@! TO.C,SW160*
X112780000Y-86360000D03*
X100580000Y-86360000D03*
D12*
X106680000Y-86360000D03*
X104680000Y-86360000D03*
D13*
X102680000Y-86360000D03*
D12*
X110680000Y-86360000D03*
G04 #@! TD*
G04 #@! TO.C,SW161*
X110680000Y-96520000D03*
D13*
X102680000Y-96520000D03*
D12*
X104680000Y-96520000D03*
X106680000Y-96520000D03*
D14*
X100580000Y-96520000D03*
X112780000Y-96520000D03*
G04 #@! TD*
D12*
G04 #@! TO.C,SW162*
X110680000Y-106680000D03*
D13*
X102680000Y-106680000D03*
D12*
X104680000Y-106680000D03*
X106680000Y-106680000D03*
D14*
X100580000Y-106680000D03*
X112780000Y-106680000D03*
G04 #@! TD*
G04 #@! TO.C,SW163*
X112780000Y-116840000D03*
X100580000Y-116840000D03*
D12*
X106680000Y-116840000D03*
X104680000Y-116840000D03*
D13*
X102680000Y-116840000D03*
D12*
X110680000Y-116840000D03*
G04 #@! TD*
G04 #@! TO.C,SW164*
X110680000Y-127000000D03*
D13*
X102680000Y-127000000D03*
D12*
X104680000Y-127000000D03*
X106680000Y-127000000D03*
D14*
X100580000Y-127000000D03*
X112780000Y-127000000D03*
G04 #@! TD*
D12*
G04 #@! TO.C,SW165*
X110680000Y-137160000D03*
D13*
X102680000Y-137160000D03*
D12*
X104680000Y-137160000D03*
X106680000Y-137160000D03*
D14*
X100580000Y-137160000D03*
X112780000Y-137160000D03*
G04 #@! TD*
G04 #@! TO.C,SW166*
X112780000Y-147320000D03*
X100580000Y-147320000D03*
D12*
X106680000Y-147320000D03*
X104680000Y-147320000D03*
D13*
X102680000Y-147320000D03*
D12*
X110680000Y-147320000D03*
G04 #@! TD*
G04 #@! TO.C,SW167*
X110680000Y-157480000D03*
D13*
X102680000Y-157480000D03*
D12*
X104680000Y-157480000D03*
X106680000Y-157480000D03*
D14*
X100580000Y-157480000D03*
X112780000Y-157480000D03*
G04 #@! TD*
D12*
G04 #@! TO.C,SW168*
X110680000Y-167640000D03*
D13*
X102680000Y-167640000D03*
D12*
X104680000Y-167640000D03*
X106680000Y-167640000D03*
D14*
X100580000Y-167640000D03*
X112780000Y-167640000D03*
G04 #@! TD*
G04 #@! TO.C,SW169*
X112780000Y-177800000D03*
X100580000Y-177800000D03*
D12*
X106680000Y-177800000D03*
X104680000Y-177800000D03*
D13*
X102680000Y-177800000D03*
D12*
X110680000Y-177800000D03*
G04 #@! TD*
G04 #@! TO.C,SW170*
X110680000Y-187960000D03*
D13*
X102680000Y-187960000D03*
D12*
X104680000Y-187960000D03*
X106680000Y-187960000D03*
D14*
X100580000Y-187960000D03*
X112780000Y-187960000D03*
G04 #@! TD*
D12*
G04 #@! TO.C,SW171*
X110680000Y-198120000D03*
D13*
X102680000Y-198120000D03*
D12*
X104680000Y-198120000D03*
X106680000Y-198120000D03*
D14*
X100580000Y-198120000D03*
X112780000Y-198120000D03*
G04 #@! TD*
G04 #@! TO.C,SW172*
X112780000Y-208280000D03*
X100580000Y-208280000D03*
D12*
X106680000Y-208280000D03*
X104680000Y-208280000D03*
D13*
X102680000Y-208280000D03*
D12*
X110680000Y-208280000D03*
G04 #@! TD*
G04 #@! TO.C,SW173*
X110680000Y-218440000D03*
D13*
X102680000Y-218440000D03*
D12*
X104680000Y-218440000D03*
X106680000Y-218440000D03*
D14*
X100580000Y-218440000D03*
X112780000Y-218440000D03*
G04 #@! TD*
D12*
G04 #@! TO.C,SW174*
X110680000Y-228600000D03*
D13*
X102680000Y-228600000D03*
D12*
X104680000Y-228600000D03*
X106680000Y-228600000D03*
D14*
X100580000Y-228600000D03*
X112780000Y-228600000D03*
G04 #@! TD*
G04 #@! TO.C,SW175*
X112780000Y-238760000D03*
X100580000Y-238760000D03*
D12*
X106680000Y-238760000D03*
X104680000Y-238760000D03*
D13*
X102680000Y-238760000D03*
D12*
X110680000Y-238760000D03*
G04 #@! TD*
G04 #@! TO.C,SW176*
X110680000Y-248920000D03*
D13*
X102680000Y-248920000D03*
D12*
X104680000Y-248920000D03*
X106680000Y-248920000D03*
D14*
X100580000Y-248920000D03*
X112780000Y-248920000D03*
G04 #@! TD*
D12*
G04 #@! TO.C,SW177*
X110680000Y-259080000D03*
D13*
X102680000Y-259080000D03*
D12*
X104680000Y-259080000D03*
X106680000Y-259080000D03*
D14*
X100580000Y-259080000D03*
X112780000Y-259080000D03*
G04 #@! TD*
G04 #@! TO.C,SW178*
X112780000Y-269240000D03*
X100580000Y-269240000D03*
D12*
X106680000Y-269240000D03*
X104680000Y-269240000D03*
D13*
X102680000Y-269240000D03*
D12*
X110680000Y-269240000D03*
G04 #@! TD*
G04 #@! TO.C,SW179*
X110680000Y-279400000D03*
D13*
X102680000Y-279400000D03*
D12*
X104680000Y-279400000D03*
X106680000Y-279400000D03*
D14*
X100580000Y-279400000D03*
X112780000Y-279400000D03*
G04 #@! TD*
D12*
G04 #@! TO.C,SW180*
X110680000Y-289560000D03*
D13*
X102680000Y-289560000D03*
D12*
X104680000Y-289560000D03*
X106680000Y-289560000D03*
D14*
X100580000Y-289560000D03*
X112780000Y-289560000D03*
G04 #@! TD*
G04 #@! TO.C,SW181*
X112780000Y-299720000D03*
X100580000Y-299720000D03*
D12*
X106680000Y-299720000D03*
X104680000Y-299720000D03*
D13*
X102680000Y-299720000D03*
D12*
X110680000Y-299720000D03*
G04 #@! TD*
G04 #@! TO.C,SW182*
X110680000Y-309880000D03*
D13*
X102680000Y-309880000D03*
D12*
X104680000Y-309880000D03*
X106680000Y-309880000D03*
D14*
X100580000Y-309880000D03*
X112780000Y-309880000D03*
G04 #@! TD*
D12*
G04 #@! TO.C,SW183*
X128460000Y-15240000D03*
D13*
X120460000Y-15240000D03*
D12*
X122460000Y-15240000D03*
X124460000Y-15240000D03*
D14*
X118360000Y-15240000D03*
X130560000Y-15240000D03*
G04 #@! TD*
G04 #@! TO.C,SW184*
X130560000Y-25400000D03*
X118360000Y-25400000D03*
D12*
X124460000Y-25400000D03*
X122460000Y-25400000D03*
D13*
X120460000Y-25400000D03*
D12*
X128460000Y-25400000D03*
G04 #@! TD*
G04 #@! TO.C,SW185*
X128460000Y-35560000D03*
D13*
X120460000Y-35560000D03*
D12*
X122460000Y-35560000D03*
X124460000Y-35560000D03*
D14*
X118360000Y-35560000D03*
X130560000Y-35560000D03*
G04 #@! TD*
D12*
G04 #@! TO.C,SW186*
X128460000Y-45720000D03*
D13*
X120460000Y-45720000D03*
D12*
X122460000Y-45720000D03*
X124460000Y-45720000D03*
D14*
X118360000Y-45720000D03*
X130560000Y-45720000D03*
G04 #@! TD*
G04 #@! TO.C,SW187*
X130560000Y-55880000D03*
X118360000Y-55880000D03*
D12*
X124460000Y-55880000D03*
X122460000Y-55880000D03*
D13*
X120460000Y-55880000D03*
D12*
X128460000Y-55880000D03*
G04 #@! TD*
G04 #@! TO.C,SW188*
X128460000Y-66040000D03*
D13*
X120460000Y-66040000D03*
D12*
X122460000Y-66040000D03*
X124460000Y-66040000D03*
D14*
X118360000Y-66040000D03*
X130560000Y-66040000D03*
G04 #@! TD*
D12*
G04 #@! TO.C,SW189*
X128460000Y-76200000D03*
D13*
X120460000Y-76200000D03*
D12*
X122460000Y-76200000D03*
X124460000Y-76200000D03*
D14*
X118360000Y-76200000D03*
X130560000Y-76200000D03*
G04 #@! TD*
G04 #@! TO.C,SW190*
X130560000Y-86360000D03*
X118360000Y-86360000D03*
D12*
X124460000Y-86360000D03*
X122460000Y-86360000D03*
D13*
X120460000Y-86360000D03*
D12*
X128460000Y-86360000D03*
G04 #@! TD*
G04 #@! TO.C,SW191*
X128460000Y-96520000D03*
D13*
X120460000Y-96520000D03*
D12*
X122460000Y-96520000D03*
X124460000Y-96520000D03*
D14*
X118360000Y-96520000D03*
X130560000Y-96520000D03*
G04 #@! TD*
D12*
G04 #@! TO.C,SW192*
X128460000Y-106680000D03*
D13*
X120460000Y-106680000D03*
D12*
X122460000Y-106680000D03*
X124460000Y-106680000D03*
D14*
X118360000Y-106680000D03*
X130560000Y-106680000D03*
G04 #@! TD*
G04 #@! TO.C,SW193*
X130560000Y-116840000D03*
X118360000Y-116840000D03*
D12*
X124460000Y-116840000D03*
X122460000Y-116840000D03*
D13*
X120460000Y-116840000D03*
D12*
X128460000Y-116840000D03*
G04 #@! TD*
G04 #@! TO.C,SW194*
X128460000Y-127000000D03*
D13*
X120460000Y-127000000D03*
D12*
X122460000Y-127000000D03*
X124460000Y-127000000D03*
D14*
X118360000Y-127000000D03*
X130560000Y-127000000D03*
G04 #@! TD*
D12*
G04 #@! TO.C,SW195*
X128460000Y-137160000D03*
D13*
X120460000Y-137160000D03*
D12*
X122460000Y-137160000D03*
X124460000Y-137160000D03*
D14*
X118360000Y-137160000D03*
X130560000Y-137160000D03*
G04 #@! TD*
G04 #@! TO.C,SW196*
X130560000Y-147320000D03*
X118360000Y-147320000D03*
D12*
X124460000Y-147320000D03*
X122460000Y-147320000D03*
D13*
X120460000Y-147320000D03*
D12*
X128460000Y-147320000D03*
G04 #@! TD*
G04 #@! TO.C,SW197*
X128460000Y-157480000D03*
D13*
X120460000Y-157480000D03*
D12*
X122460000Y-157480000D03*
X124460000Y-157480000D03*
D14*
X118360000Y-157480000D03*
X130560000Y-157480000D03*
G04 #@! TD*
D12*
G04 #@! TO.C,SW198*
X128460000Y-167640000D03*
D13*
X120460000Y-167640000D03*
D12*
X122460000Y-167640000D03*
X124460000Y-167640000D03*
D14*
X118360000Y-167640000D03*
X130560000Y-167640000D03*
G04 #@! TD*
G04 #@! TO.C,SW199*
X130560000Y-177800000D03*
X118360000Y-177800000D03*
D12*
X124460000Y-177800000D03*
X122460000Y-177800000D03*
D13*
X120460000Y-177800000D03*
D12*
X128460000Y-177800000D03*
G04 #@! TD*
G04 #@! TO.C,SW200*
X128460000Y-187960000D03*
D13*
X120460000Y-187960000D03*
D12*
X122460000Y-187960000D03*
X124460000Y-187960000D03*
D14*
X118360000Y-187960000D03*
X130560000Y-187960000D03*
G04 #@! TD*
D12*
G04 #@! TO.C,SW201*
X128460000Y-198120000D03*
D13*
X120460000Y-198120000D03*
D12*
X122460000Y-198120000D03*
X124460000Y-198120000D03*
D14*
X118360000Y-198120000D03*
X130560000Y-198120000D03*
G04 #@! TD*
G04 #@! TO.C,SW202*
X130560000Y-208280000D03*
X118360000Y-208280000D03*
D12*
X124460000Y-208280000D03*
X122460000Y-208280000D03*
D13*
X120460000Y-208280000D03*
D12*
X128460000Y-208280000D03*
G04 #@! TD*
G04 #@! TO.C,SW203*
X128460000Y-218440000D03*
D13*
X120460000Y-218440000D03*
D12*
X122460000Y-218440000D03*
X124460000Y-218440000D03*
D14*
X118360000Y-218440000D03*
X130560000Y-218440000D03*
G04 #@! TD*
D12*
G04 #@! TO.C,SW204*
X128460000Y-228600000D03*
D13*
X120460000Y-228600000D03*
D12*
X122460000Y-228600000D03*
X124460000Y-228600000D03*
D14*
X118360000Y-228600000D03*
X130560000Y-228600000D03*
G04 #@! TD*
G04 #@! TO.C,SW205*
X130560000Y-238760000D03*
X118360000Y-238760000D03*
D12*
X124460000Y-238760000D03*
X122460000Y-238760000D03*
D13*
X120460000Y-238760000D03*
D12*
X128460000Y-238760000D03*
G04 #@! TD*
D14*
G04 #@! TO.C,SW206*
X130560000Y-248920000D03*
X118360000Y-248920000D03*
D12*
X124460000Y-248920000D03*
X122460000Y-248920000D03*
D13*
X120460000Y-248920000D03*
D12*
X128460000Y-248920000D03*
G04 #@! TD*
D14*
G04 #@! TO.C,SW207*
X130560000Y-259080000D03*
X118360000Y-259080000D03*
D12*
X124460000Y-259080000D03*
X122460000Y-259080000D03*
D13*
X120460000Y-259080000D03*
D12*
X128460000Y-259080000D03*
G04 #@! TD*
G04 #@! TO.C,SW208*
X128460000Y-269240000D03*
D13*
X120460000Y-269240000D03*
D12*
X122460000Y-269240000D03*
X124460000Y-269240000D03*
D14*
X118360000Y-269240000D03*
X130560000Y-269240000D03*
G04 #@! TD*
G04 #@! TO.C,SW209*
X130560000Y-279400000D03*
X118360000Y-279400000D03*
D12*
X124460000Y-279400000D03*
X122460000Y-279400000D03*
D13*
X120460000Y-279400000D03*
D12*
X128460000Y-279400000D03*
G04 #@! TD*
D14*
G04 #@! TO.C,SW210*
X130560000Y-289560000D03*
X118360000Y-289560000D03*
D12*
X124460000Y-289560000D03*
X122460000Y-289560000D03*
D13*
X120460000Y-289560000D03*
D12*
X128460000Y-289560000D03*
G04 #@! TD*
G04 #@! TO.C,SW211*
X128460000Y-299720000D03*
D13*
X120460000Y-299720000D03*
D12*
X122460000Y-299720000D03*
X124460000Y-299720000D03*
D14*
X118360000Y-299720000D03*
X130560000Y-299720000D03*
G04 #@! TD*
G04 #@! TO.C,SW212*
X130560000Y-309880000D03*
X118360000Y-309880000D03*
D12*
X124460000Y-309880000D03*
X122460000Y-309880000D03*
D13*
X120460000Y-309880000D03*
D12*
X128460000Y-309880000D03*
G04 #@! TD*
D14*
G04 #@! TO.C,SW213*
X130560000Y-320040000D03*
X118360000Y-320040000D03*
D12*
X124460000Y-320040000D03*
X122460000Y-320040000D03*
D13*
X120460000Y-320040000D03*
D12*
X128460000Y-320040000D03*
G04 #@! TD*
G04 #@! TO.C,SW214*
X146240000Y-15240000D03*
D13*
X138240000Y-15240000D03*
D12*
X140240000Y-15240000D03*
X142240000Y-15240000D03*
D14*
X136140000Y-15240000D03*
X148340000Y-15240000D03*
G04 #@! TD*
G04 #@! TO.C,SW215*
X148340000Y-25400000D03*
X136140000Y-25400000D03*
D12*
X142240000Y-25400000D03*
X140240000Y-25400000D03*
D13*
X138240000Y-25400000D03*
D12*
X146240000Y-25400000D03*
G04 #@! TD*
D14*
G04 #@! TO.C,SW216*
X148340000Y-35560000D03*
X136140000Y-35560000D03*
D12*
X142240000Y-35560000D03*
X140240000Y-35560000D03*
D13*
X138240000Y-35560000D03*
D12*
X146240000Y-35560000D03*
G04 #@! TD*
G04 #@! TO.C,SW217*
X146240000Y-45720000D03*
D13*
X138240000Y-45720000D03*
D12*
X140240000Y-45720000D03*
X142240000Y-45720000D03*
D14*
X136140000Y-45720000D03*
X148340000Y-45720000D03*
G04 #@! TD*
G04 #@! TO.C,SW218*
X148340000Y-55880000D03*
X136140000Y-55880000D03*
D12*
X142240000Y-55880000D03*
X140240000Y-55880000D03*
D13*
X138240000Y-55880000D03*
D12*
X146240000Y-55880000D03*
G04 #@! TD*
D14*
G04 #@! TO.C,SW219*
X148340000Y-66040000D03*
X136140000Y-66040000D03*
D12*
X142240000Y-66040000D03*
X140240000Y-66040000D03*
D13*
X138240000Y-66040000D03*
D12*
X146240000Y-66040000D03*
G04 #@! TD*
G04 #@! TO.C,SW220*
X146240000Y-76200000D03*
D13*
X138240000Y-76200000D03*
D12*
X140240000Y-76200000D03*
X142240000Y-76200000D03*
D14*
X136140000Y-76200000D03*
X148340000Y-76200000D03*
G04 #@! TD*
G04 #@! TO.C,SW221*
X148340000Y-86360000D03*
X136140000Y-86360000D03*
D12*
X142240000Y-86360000D03*
X140240000Y-86360000D03*
D13*
X138240000Y-86360000D03*
D12*
X146240000Y-86360000D03*
G04 #@! TD*
D14*
G04 #@! TO.C,SW222*
X148340000Y-96520000D03*
X136140000Y-96520000D03*
D12*
X142240000Y-96520000D03*
X140240000Y-96520000D03*
D13*
X138240000Y-96520000D03*
D12*
X146240000Y-96520000D03*
G04 #@! TD*
G04 #@! TO.C,SW223*
X146240000Y-106680000D03*
D13*
X138240000Y-106680000D03*
D12*
X140240000Y-106680000D03*
X142240000Y-106680000D03*
D14*
X136140000Y-106680000D03*
X148340000Y-106680000D03*
G04 #@! TD*
G04 #@! TO.C,SW224*
X148340000Y-116840000D03*
X136140000Y-116840000D03*
D12*
X142240000Y-116840000D03*
X140240000Y-116840000D03*
D13*
X138240000Y-116840000D03*
D12*
X146240000Y-116840000D03*
G04 #@! TD*
D14*
G04 #@! TO.C,SW225*
X148340000Y-127000000D03*
X136140000Y-127000000D03*
D12*
X142240000Y-127000000D03*
X140240000Y-127000000D03*
D13*
X138240000Y-127000000D03*
D12*
X146240000Y-127000000D03*
G04 #@! TD*
G04 #@! TO.C,SW226*
X146240000Y-137160000D03*
D13*
X138240000Y-137160000D03*
D12*
X140240000Y-137160000D03*
X142240000Y-137160000D03*
D14*
X136140000Y-137160000D03*
X148340000Y-137160000D03*
G04 #@! TD*
G04 #@! TO.C,SW227*
X148340000Y-147320000D03*
X136140000Y-147320000D03*
D12*
X142240000Y-147320000D03*
X140240000Y-147320000D03*
D13*
X138240000Y-147320000D03*
D12*
X146240000Y-147320000D03*
G04 #@! TD*
G04 #@! TO.C,SW228*
X146240000Y-157480000D03*
D13*
X138240000Y-157480000D03*
D12*
X140240000Y-157480000D03*
X142240000Y-157480000D03*
D14*
X136140000Y-157480000D03*
X148340000Y-157480000D03*
G04 #@! TD*
G04 #@! TO.C,SW229*
X148340000Y-167640000D03*
X136140000Y-167640000D03*
D12*
X142240000Y-167640000D03*
X140240000Y-167640000D03*
D13*
X138240000Y-167640000D03*
D12*
X146240000Y-167640000D03*
G04 #@! TD*
G04 #@! TO.C,SW230*
X146240000Y-177800000D03*
D13*
X138240000Y-177800000D03*
D12*
X140240000Y-177800000D03*
X142240000Y-177800000D03*
D14*
X136140000Y-177800000D03*
X148340000Y-177800000D03*
G04 #@! TD*
D12*
G04 #@! TO.C,SW231*
X146140000Y-187960000D03*
D13*
X138140000Y-187960000D03*
D12*
X140140000Y-187960000D03*
X142140000Y-187960000D03*
D14*
X136040000Y-187960000D03*
X148240000Y-187960000D03*
G04 #@! TD*
G04 #@! TO.C,SW232*
X148340000Y-198120000D03*
X136140000Y-198120000D03*
D12*
X142240000Y-198120000D03*
X140240000Y-198120000D03*
D13*
X138240000Y-198120000D03*
D12*
X146240000Y-198120000D03*
G04 #@! TD*
G04 #@! TO.C,SW233*
X146240000Y-208280000D03*
D13*
X138240000Y-208280000D03*
D12*
X140240000Y-208280000D03*
X142240000Y-208280000D03*
D14*
X136140000Y-208280000D03*
X148340000Y-208280000D03*
G04 #@! TD*
D12*
G04 #@! TO.C,SW234*
X146240000Y-218440000D03*
D13*
X138240000Y-218440000D03*
D12*
X140240000Y-218440000D03*
X142240000Y-218440000D03*
D14*
X136140000Y-218440000D03*
X148340000Y-218440000D03*
G04 #@! TD*
G04 #@! TO.C,SW235*
X148340000Y-228600000D03*
X136140000Y-228600000D03*
D12*
X142240000Y-228600000D03*
X140240000Y-228600000D03*
D13*
X138240000Y-228600000D03*
D12*
X146240000Y-228600000D03*
G04 #@! TD*
G04 #@! TO.C,SW236*
X146240000Y-238760000D03*
D13*
X138240000Y-238760000D03*
D12*
X140240000Y-238760000D03*
X142240000Y-238760000D03*
D14*
X136140000Y-238760000D03*
X148340000Y-238760000D03*
G04 #@! TD*
D12*
G04 #@! TO.C,SW237*
X146240000Y-248920000D03*
D13*
X138240000Y-248920000D03*
D12*
X140240000Y-248920000D03*
X142240000Y-248920000D03*
D14*
X136140000Y-248920000D03*
X148340000Y-248920000D03*
G04 #@! TD*
G04 #@! TO.C,SW238*
X148340000Y-259080000D03*
X136140000Y-259080000D03*
D12*
X142240000Y-259080000D03*
X140240000Y-259080000D03*
D13*
X138240000Y-259080000D03*
D12*
X146240000Y-259080000D03*
G04 #@! TD*
G04 #@! TO.C,SW239*
X146240000Y-269240000D03*
D13*
X138240000Y-269240000D03*
D12*
X140240000Y-269240000D03*
X142240000Y-269240000D03*
D14*
X136140000Y-269240000D03*
X148340000Y-269240000D03*
G04 #@! TD*
D12*
G04 #@! TO.C,SW240*
X146240000Y-279400000D03*
D13*
X138240000Y-279400000D03*
D12*
X140240000Y-279400000D03*
X142240000Y-279400000D03*
D14*
X136140000Y-279400000D03*
X148340000Y-279400000D03*
G04 #@! TD*
G04 #@! TO.C,SW241*
X148340000Y-289560000D03*
X136140000Y-289560000D03*
D12*
X142240000Y-289560000D03*
X140240000Y-289560000D03*
D13*
X138240000Y-289560000D03*
D12*
X146240000Y-289560000D03*
G04 #@! TD*
G04 #@! TO.C,SW242*
X146240000Y-299720000D03*
D13*
X138240000Y-299720000D03*
D12*
X140240000Y-299720000D03*
X142240000Y-299720000D03*
D14*
X136140000Y-299720000D03*
X148340000Y-299720000D03*
G04 #@! TD*
D12*
G04 #@! TO.C,SW243*
X146240000Y-309880000D03*
D13*
X138240000Y-309880000D03*
D12*
X140240000Y-309880000D03*
X142240000Y-309880000D03*
D14*
X136140000Y-309880000D03*
X148340000Y-309880000D03*
G04 #@! TD*
G04 #@! TO.C,SW244*
X148340000Y-320040000D03*
X136140000Y-320040000D03*
D12*
X142240000Y-320040000D03*
X140240000Y-320040000D03*
D13*
X138240000Y-320040000D03*
D12*
X146240000Y-320040000D03*
G04 #@! TD*
G04 #@! TO.C,SW245*
X164020000Y-15240000D03*
D13*
X156020000Y-15240000D03*
D12*
X158020000Y-15240000D03*
X160020000Y-15240000D03*
D14*
X153920000Y-15240000D03*
X166120000Y-15240000D03*
G04 #@! TD*
D12*
G04 #@! TO.C,SW246*
X164020000Y-25400000D03*
D13*
X156020000Y-25400000D03*
D12*
X158020000Y-25400000D03*
X160020000Y-25400000D03*
D14*
X153920000Y-25400000D03*
X166120000Y-25400000D03*
G04 #@! TD*
G04 #@! TO.C,SW247*
X166120000Y-35560000D03*
X153920000Y-35560000D03*
D12*
X160020000Y-35560000D03*
X158020000Y-35560000D03*
D13*
X156020000Y-35560000D03*
D12*
X164020000Y-35560000D03*
G04 #@! TD*
G04 #@! TO.C,SW248*
X164020000Y-45720000D03*
D13*
X156020000Y-45720000D03*
D12*
X158020000Y-45720000D03*
X160020000Y-45720000D03*
D14*
X153920000Y-45720000D03*
X166120000Y-45720000D03*
G04 #@! TD*
D12*
G04 #@! TO.C,SW249*
X164020000Y-55880000D03*
D13*
X156020000Y-55880000D03*
D12*
X158020000Y-55880000D03*
X160020000Y-55880000D03*
D14*
X153920000Y-55880000D03*
X166120000Y-55880000D03*
G04 #@! TD*
G04 #@! TO.C,SW250*
X166120000Y-66040000D03*
X153920000Y-66040000D03*
D12*
X160020000Y-66040000D03*
X158020000Y-66040000D03*
D13*
X156020000Y-66040000D03*
D12*
X164020000Y-66040000D03*
G04 #@! TD*
G04 #@! TO.C,SW251*
X164020000Y-76200000D03*
D13*
X156020000Y-76200000D03*
D12*
X158020000Y-76200000D03*
X160020000Y-76200000D03*
D14*
X153920000Y-76200000D03*
X166120000Y-76200000D03*
G04 #@! TD*
D12*
G04 #@! TO.C,SW252*
X164020000Y-86360000D03*
D13*
X156020000Y-86360000D03*
D12*
X158020000Y-86360000D03*
X160020000Y-86360000D03*
D14*
X153920000Y-86360000D03*
X166120000Y-86360000D03*
G04 #@! TD*
D12*
G04 #@! TO.C,SW253*
X164020000Y-96520000D03*
D13*
X156020000Y-96520000D03*
D12*
X158020000Y-96520000D03*
X160020000Y-96520000D03*
D14*
X153920000Y-96520000D03*
X166120000Y-96520000D03*
G04 #@! TD*
G04 #@! TO.C,SW254*
X166120000Y-106680000D03*
X153920000Y-106680000D03*
D12*
X160020000Y-106680000D03*
X158020000Y-106680000D03*
D13*
X156020000Y-106680000D03*
D12*
X164020000Y-106680000D03*
G04 #@! TD*
D14*
G04 #@! TO.C,SW255*
X166120000Y-116840000D03*
X153920000Y-116840000D03*
D12*
X160020000Y-116840000D03*
X158020000Y-116840000D03*
D13*
X156020000Y-116840000D03*
D12*
X164020000Y-116840000D03*
G04 #@! TD*
G04 #@! TO.C,SW256*
X164020000Y-127000000D03*
D13*
X156020000Y-127000000D03*
D12*
X158020000Y-127000000D03*
X160020000Y-127000000D03*
D14*
X153920000Y-127000000D03*
X166120000Y-127000000D03*
G04 #@! TD*
G04 #@! TO.C,SW257*
X166120000Y-137160000D03*
X153920000Y-137160000D03*
D12*
X160020000Y-137160000D03*
X158020000Y-137160000D03*
D13*
X156020000Y-137160000D03*
D12*
X164020000Y-137160000D03*
G04 #@! TD*
D14*
G04 #@! TO.C,SW258*
X166120000Y-147320000D03*
X153920000Y-147320000D03*
D12*
X160020000Y-147320000D03*
X158020000Y-147320000D03*
D13*
X156020000Y-147320000D03*
D12*
X164020000Y-147320000D03*
G04 #@! TD*
G04 #@! TO.C,SW259*
X164020000Y-157480000D03*
D13*
X156020000Y-157480000D03*
D12*
X158020000Y-157480000D03*
X160020000Y-157480000D03*
D14*
X153920000Y-157480000D03*
X166120000Y-157480000D03*
G04 #@! TD*
G04 #@! TO.C,SW260*
X166120000Y-167640000D03*
X153920000Y-167640000D03*
D12*
X160020000Y-167640000D03*
X158020000Y-167640000D03*
D13*
X156020000Y-167640000D03*
D12*
X164020000Y-167640000D03*
G04 #@! TD*
D14*
G04 #@! TO.C,SW261*
X166120000Y-177800000D03*
X153920000Y-177800000D03*
D12*
X160020000Y-177800000D03*
X158020000Y-177800000D03*
D13*
X156020000Y-177800000D03*
D12*
X164020000Y-177800000D03*
G04 #@! TD*
G04 #@! TO.C,SW262*
X164020000Y-187960000D03*
D13*
X156020000Y-187960000D03*
D12*
X158020000Y-187960000D03*
X160020000Y-187960000D03*
D14*
X153920000Y-187960000D03*
X166120000Y-187960000D03*
G04 #@! TD*
G04 #@! TO.C,SW263*
X166120000Y-198120000D03*
X153920000Y-198120000D03*
D12*
X160020000Y-198120000D03*
X158020000Y-198120000D03*
D13*
X156020000Y-198120000D03*
D12*
X164020000Y-198120000D03*
G04 #@! TD*
D14*
G04 #@! TO.C,SW264*
X166120000Y-208280000D03*
X153920000Y-208280000D03*
D12*
X160020000Y-208280000D03*
X158020000Y-208280000D03*
D13*
X156020000Y-208280000D03*
D12*
X164020000Y-208280000D03*
G04 #@! TD*
G04 #@! TO.C,SW265*
X164020000Y-218440000D03*
D13*
X156020000Y-218440000D03*
D12*
X158020000Y-218440000D03*
X160020000Y-218440000D03*
D14*
X153920000Y-218440000D03*
X166120000Y-218440000D03*
G04 #@! TD*
G04 #@! TO.C,SW266*
X166120000Y-228600000D03*
X153920000Y-228600000D03*
D12*
X160020000Y-228600000D03*
X158020000Y-228600000D03*
D13*
X156020000Y-228600000D03*
D12*
X164020000Y-228600000D03*
G04 #@! TD*
D14*
G04 #@! TO.C,SW267*
X166120000Y-238760000D03*
X153920000Y-238760000D03*
D12*
X160020000Y-238760000D03*
X158020000Y-238760000D03*
D13*
X156020000Y-238760000D03*
D12*
X164020000Y-238760000D03*
G04 #@! TD*
G04 #@! TO.C,SW268*
X164020000Y-248920000D03*
D13*
X156020000Y-248920000D03*
D12*
X158020000Y-248920000D03*
X160020000Y-248920000D03*
D14*
X153920000Y-248920000D03*
X166120000Y-248920000D03*
G04 #@! TD*
G04 #@! TO.C,SW269*
X166120000Y-259080000D03*
X153920000Y-259080000D03*
D12*
X160020000Y-259080000D03*
X158020000Y-259080000D03*
D13*
X156020000Y-259080000D03*
D12*
X164020000Y-259080000D03*
G04 #@! TD*
D14*
G04 #@! TO.C,SW270*
X166120000Y-269240000D03*
X153920000Y-269240000D03*
D12*
X160020000Y-269240000D03*
X158020000Y-269240000D03*
D13*
X156020000Y-269240000D03*
D12*
X164020000Y-269240000D03*
G04 #@! TD*
G04 #@! TO.C,SW271*
X164020000Y-279400000D03*
D13*
X156020000Y-279400000D03*
D12*
X158020000Y-279400000D03*
X160020000Y-279400000D03*
D14*
X153920000Y-279400000D03*
X166120000Y-279400000D03*
G04 #@! TD*
G04 #@! TO.C,SW272*
X166120000Y-289560000D03*
X153920000Y-289560000D03*
D12*
X160020000Y-289560000D03*
X158020000Y-289560000D03*
D13*
X156020000Y-289560000D03*
D12*
X164020000Y-289560000D03*
G04 #@! TD*
D14*
G04 #@! TO.C,SW273*
X166120000Y-299720000D03*
X153920000Y-299720000D03*
D12*
X160020000Y-299720000D03*
X158020000Y-299720000D03*
D13*
X156020000Y-299720000D03*
D12*
X164020000Y-299720000D03*
G04 #@! TD*
G04 #@! TO.C,SW274*
X164020000Y-309880000D03*
D13*
X156020000Y-309880000D03*
D12*
X158020000Y-309880000D03*
X160020000Y-309880000D03*
D14*
X153920000Y-309880000D03*
X166120000Y-309880000D03*
G04 #@! TD*
G04 #@! TO.C,SW275*
X183900000Y-15240000D03*
X171700000Y-15240000D03*
D12*
X177800000Y-15240000D03*
X175800000Y-15240000D03*
D13*
X173800000Y-15240000D03*
D12*
X181800000Y-15240000D03*
G04 #@! TD*
G04 #@! TO.C,SW276*
X181800000Y-25400000D03*
D13*
X173800000Y-25400000D03*
D12*
X175800000Y-25400000D03*
X177800000Y-25400000D03*
D14*
X171700000Y-25400000D03*
X183900000Y-25400000D03*
G04 #@! TD*
D12*
G04 #@! TO.C,SW277*
X181800000Y-35560000D03*
D13*
X173800000Y-35560000D03*
D12*
X175800000Y-35560000D03*
X177800000Y-35560000D03*
D14*
X171700000Y-35560000D03*
X183900000Y-35560000D03*
G04 #@! TD*
D12*
G04 #@! TO.C,SW278*
X181800000Y-45720000D03*
D13*
X173800000Y-45720000D03*
D12*
X175800000Y-45720000D03*
X177800000Y-45720000D03*
D14*
X171700000Y-45720000D03*
X183900000Y-45720000D03*
G04 #@! TD*
D12*
G04 #@! TO.C,SW279*
X181800000Y-55880000D03*
D13*
X173800000Y-55880000D03*
D12*
X175800000Y-55880000D03*
X177800000Y-55880000D03*
D14*
X171700000Y-55880000D03*
X183900000Y-55880000D03*
G04 #@! TD*
D12*
G04 #@! TO.C,SW280*
X181800000Y-66040000D03*
D13*
X173800000Y-66040000D03*
D12*
X175800000Y-66040000D03*
X177800000Y-66040000D03*
D14*
X171700000Y-66040000D03*
X183900000Y-66040000D03*
G04 #@! TD*
D12*
G04 #@! TO.C,SW281*
X181800000Y-76200000D03*
D13*
X173800000Y-76200000D03*
D12*
X175800000Y-76200000D03*
X177800000Y-76200000D03*
D14*
X171700000Y-76200000D03*
X183900000Y-76200000D03*
G04 #@! TD*
D12*
G04 #@! TO.C,SW282*
X181800000Y-86360000D03*
D13*
X173800000Y-86360000D03*
D12*
X175800000Y-86360000D03*
X177800000Y-86360000D03*
D14*
X171700000Y-86360000D03*
X183900000Y-86360000D03*
G04 #@! TD*
G04 #@! TO.C,SW283*
X183900000Y-96520000D03*
X171700000Y-96520000D03*
D12*
X177800000Y-96520000D03*
X175800000Y-96520000D03*
D13*
X173800000Y-96520000D03*
D12*
X181800000Y-96520000D03*
G04 #@! TD*
D14*
G04 #@! TO.C,SW284*
X183900000Y-106680000D03*
X171700000Y-106680000D03*
D12*
X177800000Y-106680000D03*
X175800000Y-106680000D03*
D13*
X173800000Y-106680000D03*
D12*
X181800000Y-106680000D03*
G04 #@! TD*
D14*
G04 #@! TO.C,SW285*
X183900000Y-116840000D03*
X171700000Y-116840000D03*
D12*
X177800000Y-116840000D03*
X175800000Y-116840000D03*
D13*
X173800000Y-116840000D03*
D12*
X181800000Y-116840000D03*
G04 #@! TD*
D14*
G04 #@! TO.C,SW286*
X183900000Y-127000000D03*
X171700000Y-127000000D03*
D12*
X177800000Y-127000000D03*
X175800000Y-127000000D03*
D13*
X173800000Y-127000000D03*
D12*
X181800000Y-127000000D03*
G04 #@! TD*
D14*
G04 #@! TO.C,SW287*
X183900000Y-137160000D03*
X171700000Y-137160000D03*
D12*
X177800000Y-137160000D03*
X175800000Y-137160000D03*
D13*
X173800000Y-137160000D03*
D12*
X181800000Y-137160000D03*
G04 #@! TD*
D14*
G04 #@! TO.C,SW288*
X183900000Y-147320000D03*
X171700000Y-147320000D03*
D12*
X177800000Y-147320000D03*
X175800000Y-147320000D03*
D13*
X173800000Y-147320000D03*
D12*
X181800000Y-147320000D03*
G04 #@! TD*
D14*
G04 #@! TO.C,SW289*
X183900000Y-157480000D03*
X171700000Y-157480000D03*
D12*
X177800000Y-157480000D03*
X175800000Y-157480000D03*
D13*
X173800000Y-157480000D03*
D12*
X181800000Y-157480000D03*
G04 #@! TD*
D14*
G04 #@! TO.C,SW290*
X183900000Y-167640000D03*
X171700000Y-167640000D03*
D12*
X177800000Y-167640000D03*
X175800000Y-167640000D03*
D13*
X173800000Y-167640000D03*
D12*
X181800000Y-167640000D03*
G04 #@! TD*
G04 #@! TO.C,SW291*
X181800000Y-177800000D03*
D13*
X173800000Y-177800000D03*
D12*
X175800000Y-177800000D03*
X177800000Y-177800000D03*
D14*
X171700000Y-177800000D03*
X183900000Y-177800000D03*
G04 #@! TD*
D12*
G04 #@! TO.C,SW292*
X181800000Y-187960000D03*
D13*
X173800000Y-187960000D03*
D12*
X175800000Y-187960000D03*
X177800000Y-187960000D03*
D14*
X171700000Y-187960000D03*
X183900000Y-187960000D03*
G04 #@! TD*
D12*
G04 #@! TO.C,SW293*
X181800000Y-198120000D03*
D13*
X173800000Y-198120000D03*
D12*
X175800000Y-198120000D03*
X177800000Y-198120000D03*
D14*
X171700000Y-198120000D03*
X183900000Y-198120000D03*
G04 #@! TD*
D12*
G04 #@! TO.C,SW294*
X181800000Y-208280000D03*
D13*
X173800000Y-208280000D03*
D12*
X175800000Y-208280000D03*
X177800000Y-208280000D03*
D14*
X171700000Y-208280000D03*
X183900000Y-208280000D03*
G04 #@! TD*
D12*
G04 #@! TO.C,SW295*
X181800000Y-218440000D03*
D13*
X173800000Y-218440000D03*
D12*
X175800000Y-218440000D03*
X177800000Y-218440000D03*
D14*
X171700000Y-218440000D03*
X183900000Y-218440000D03*
G04 #@! TD*
D12*
G04 #@! TO.C,SW296*
X181800000Y-228600000D03*
D13*
X173800000Y-228600000D03*
D12*
X175800000Y-228600000D03*
X177800000Y-228600000D03*
D14*
X171700000Y-228600000D03*
X183900000Y-228600000D03*
G04 #@! TD*
D12*
G04 #@! TO.C,SW297*
X181800000Y-238760000D03*
D13*
X173800000Y-238760000D03*
D12*
X175800000Y-238760000D03*
X177800000Y-238760000D03*
D14*
X171700000Y-238760000D03*
X183900000Y-238760000D03*
G04 #@! TD*
D12*
G04 #@! TO.C,SW298*
X181800000Y-248920000D03*
D13*
X173800000Y-248920000D03*
D12*
X175800000Y-248920000D03*
X177800000Y-248920000D03*
D14*
X171700000Y-248920000D03*
X183900000Y-248920000D03*
G04 #@! TD*
G04 #@! TO.C,SW299*
X183900000Y-259080000D03*
X171700000Y-259080000D03*
D12*
X177800000Y-259080000D03*
X175800000Y-259080000D03*
D13*
X173800000Y-259080000D03*
D12*
X181800000Y-259080000D03*
G04 #@! TD*
D14*
G04 #@! TO.C,SW300*
X183900000Y-269240000D03*
X171700000Y-269240000D03*
D12*
X177800000Y-269240000D03*
X175800000Y-269240000D03*
D13*
X173800000Y-269240000D03*
D12*
X181800000Y-269240000D03*
G04 #@! TD*
D14*
G04 #@! TO.C,SW301*
X183900000Y-279400000D03*
X171700000Y-279400000D03*
D12*
X177800000Y-279400000D03*
X175800000Y-279400000D03*
D13*
X173800000Y-279400000D03*
D12*
X181800000Y-279400000D03*
G04 #@! TD*
D14*
G04 #@! TO.C,SW302*
X183900000Y-289560000D03*
X171700000Y-289560000D03*
D12*
X177800000Y-289560000D03*
X175800000Y-289560000D03*
D13*
X173800000Y-289560000D03*
D12*
X181800000Y-289560000D03*
G04 #@! TD*
D14*
G04 #@! TO.C,SW303*
X183900000Y-299720000D03*
X171700000Y-299720000D03*
D12*
X177800000Y-299720000D03*
X175800000Y-299720000D03*
D13*
X173800000Y-299720000D03*
D12*
X181800000Y-299720000D03*
G04 #@! TD*
D14*
G04 #@! TO.C,SW304*
X183900000Y-309880000D03*
X171700000Y-309880000D03*
D12*
X177800000Y-309880000D03*
X175800000Y-309880000D03*
D13*
X173800000Y-309880000D03*
D12*
X181800000Y-309880000D03*
G04 #@! TD*
D14*
G04 #@! TO.C,SW305*
X183900000Y-320040000D03*
X171700000Y-320040000D03*
D12*
X177800000Y-320040000D03*
X175800000Y-320040000D03*
D13*
X173800000Y-320040000D03*
D12*
X181800000Y-320040000D03*
G04 #@! TD*
D14*
G04 #@! TO.C,SW306*
X201680000Y-15240000D03*
X189480000Y-15240000D03*
D12*
X195580000Y-15240000D03*
X193580000Y-15240000D03*
D13*
X191580000Y-15240000D03*
D12*
X199580000Y-15240000D03*
G04 #@! TD*
D14*
G04 #@! TO.C,SW307*
X201680000Y-25400000D03*
X189480000Y-25400000D03*
D12*
X195580000Y-25400000D03*
X193580000Y-25400000D03*
D13*
X191580000Y-25400000D03*
D12*
X199580000Y-25400000D03*
G04 #@! TD*
D14*
G04 #@! TO.C,SW308*
X201680000Y-35560000D03*
X189480000Y-35560000D03*
D12*
X195580000Y-35560000D03*
X193580000Y-35560000D03*
D13*
X191580000Y-35560000D03*
D12*
X199580000Y-35560000D03*
G04 #@! TD*
D14*
G04 #@! TO.C,SW309*
X201680000Y-45720000D03*
X189480000Y-45720000D03*
D12*
X195580000Y-45720000D03*
X193580000Y-45720000D03*
D13*
X191580000Y-45720000D03*
D12*
X199580000Y-45720000D03*
G04 #@! TD*
D14*
G04 #@! TO.C,SW310*
X201680000Y-55880000D03*
X189480000Y-55880000D03*
D12*
X195580000Y-55880000D03*
X193580000Y-55880000D03*
D13*
X191580000Y-55880000D03*
D12*
X199580000Y-55880000D03*
G04 #@! TD*
D14*
G04 #@! TO.C,SW311*
X201680000Y-66040000D03*
X189480000Y-66040000D03*
D12*
X195580000Y-66040000D03*
X193580000Y-66040000D03*
D13*
X191580000Y-66040000D03*
D12*
X199580000Y-66040000D03*
G04 #@! TD*
D14*
G04 #@! TO.C,SW312*
X201680000Y-76200000D03*
X189480000Y-76200000D03*
D12*
X195580000Y-76200000D03*
X193580000Y-76200000D03*
D13*
X191580000Y-76200000D03*
D12*
X199580000Y-76200000D03*
G04 #@! TD*
D14*
G04 #@! TO.C,SW313*
X201680000Y-86360000D03*
X189480000Y-86360000D03*
D12*
X195580000Y-86360000D03*
X193580000Y-86360000D03*
D13*
X191580000Y-86360000D03*
D12*
X199580000Y-86360000D03*
G04 #@! TD*
D14*
G04 #@! TO.C,SW314*
X201680000Y-96520000D03*
X189480000Y-96520000D03*
D12*
X195580000Y-96520000D03*
X193580000Y-96520000D03*
D13*
X191580000Y-96520000D03*
D12*
X199580000Y-96520000D03*
G04 #@! TD*
D14*
G04 #@! TO.C,SW315*
X201680000Y-106680000D03*
X189480000Y-106680000D03*
D12*
X195580000Y-106680000D03*
X193580000Y-106680000D03*
D13*
X191580000Y-106680000D03*
D12*
X199580000Y-106680000D03*
G04 #@! TD*
D14*
G04 #@! TO.C,SW316*
X201680000Y-116840000D03*
X189480000Y-116840000D03*
D12*
X195580000Y-116840000D03*
X193580000Y-116840000D03*
D13*
X191580000Y-116840000D03*
D12*
X199580000Y-116840000D03*
G04 #@! TD*
D14*
G04 #@! TO.C,SW317*
X201680000Y-127000000D03*
X189480000Y-127000000D03*
D12*
X195580000Y-127000000D03*
X193580000Y-127000000D03*
D13*
X191580000Y-127000000D03*
D12*
X199580000Y-127000000D03*
G04 #@! TD*
D14*
G04 #@! TO.C,SW318*
X201680000Y-137160000D03*
X189480000Y-137160000D03*
D12*
X195580000Y-137160000D03*
X193580000Y-137160000D03*
D13*
X191580000Y-137160000D03*
D12*
X199580000Y-137160000D03*
G04 #@! TD*
D14*
G04 #@! TO.C,SW319*
X201680000Y-147320000D03*
X189480000Y-147320000D03*
D12*
X195580000Y-147320000D03*
X193580000Y-147320000D03*
D13*
X191580000Y-147320000D03*
D12*
X199580000Y-147320000D03*
G04 #@! TD*
D14*
G04 #@! TO.C,SW320*
X201680000Y-157480000D03*
X189480000Y-157480000D03*
D12*
X195580000Y-157480000D03*
X193580000Y-157480000D03*
D13*
X191580000Y-157480000D03*
D12*
X199580000Y-157480000D03*
G04 #@! TD*
G04 #@! TO.C,SW321*
X199580000Y-167640000D03*
D13*
X191580000Y-167640000D03*
D12*
X193580000Y-167640000D03*
X195580000Y-167640000D03*
D14*
X189480000Y-167640000D03*
X201680000Y-167640000D03*
G04 #@! TD*
D12*
G04 #@! TO.C,SW322*
X199580000Y-177800000D03*
D13*
X191580000Y-177800000D03*
D12*
X193580000Y-177800000D03*
X195580000Y-177800000D03*
D14*
X189480000Y-177800000D03*
X201680000Y-177800000D03*
G04 #@! TD*
D12*
G04 #@! TO.C,SW323*
X199580000Y-187960000D03*
D13*
X191580000Y-187960000D03*
D12*
X193580000Y-187960000D03*
X195580000Y-187960000D03*
D14*
X189480000Y-187960000D03*
X201680000Y-187960000D03*
G04 #@! TD*
D12*
G04 #@! TO.C,SW324*
X199580000Y-198120000D03*
D13*
X191580000Y-198120000D03*
D12*
X193580000Y-198120000D03*
X195580000Y-198120000D03*
D14*
X189480000Y-198120000D03*
X201680000Y-198120000D03*
G04 #@! TD*
D12*
G04 #@! TO.C,SW325*
X199580000Y-208280000D03*
D13*
X191580000Y-208280000D03*
D12*
X193580000Y-208280000D03*
X195580000Y-208280000D03*
D14*
X189480000Y-208280000D03*
X201680000Y-208280000D03*
G04 #@! TD*
D12*
G04 #@! TO.C,SW326*
X199580000Y-218440000D03*
D13*
X191580000Y-218440000D03*
D12*
X193580000Y-218440000D03*
X195580000Y-218440000D03*
D14*
X189480000Y-218440000D03*
X201680000Y-218440000D03*
G04 #@! TD*
D12*
G04 #@! TO.C,SW327*
X199580000Y-228600000D03*
D13*
X191580000Y-228600000D03*
D12*
X193580000Y-228600000D03*
X195580000Y-228600000D03*
D14*
X189480000Y-228600000D03*
X201680000Y-228600000D03*
G04 #@! TD*
D12*
G04 #@! TO.C,SW328*
X199580000Y-238760000D03*
D13*
X191580000Y-238760000D03*
D12*
X193580000Y-238760000D03*
X195580000Y-238760000D03*
D14*
X189480000Y-238760000D03*
X201680000Y-238760000D03*
G04 #@! TD*
D12*
G04 #@! TO.C,SW329*
X199580000Y-248920000D03*
D13*
X191580000Y-248920000D03*
D12*
X193580000Y-248920000D03*
X195580000Y-248920000D03*
D14*
X189480000Y-248920000D03*
X201680000Y-248920000D03*
G04 #@! TD*
D12*
G04 #@! TO.C,SW330*
X199580000Y-259080000D03*
D13*
X191580000Y-259080000D03*
D12*
X193580000Y-259080000D03*
X195580000Y-259080000D03*
D14*
X189480000Y-259080000D03*
X201680000Y-259080000D03*
G04 #@! TD*
G04 #@! TO.C,SW331*
X201680000Y-269240000D03*
X189480000Y-269240000D03*
D12*
X195580000Y-269240000D03*
X193580000Y-269240000D03*
D13*
X191580000Y-269240000D03*
D12*
X199580000Y-269240000D03*
G04 #@! TD*
D14*
G04 #@! TO.C,SW332*
X201680000Y-279400000D03*
X189480000Y-279400000D03*
D12*
X195580000Y-279400000D03*
X193580000Y-279400000D03*
D13*
X191580000Y-279400000D03*
D12*
X199580000Y-279400000D03*
G04 #@! TD*
D14*
G04 #@! TO.C,SW333*
X201680000Y-289560000D03*
X189480000Y-289560000D03*
D12*
X195580000Y-289560000D03*
X193580000Y-289560000D03*
D13*
X191580000Y-289560000D03*
D12*
X199580000Y-289560000D03*
G04 #@! TD*
D14*
G04 #@! TO.C,SW334*
X201680000Y-299720000D03*
X189480000Y-299720000D03*
D12*
X195580000Y-299720000D03*
X193580000Y-299720000D03*
D13*
X191580000Y-299720000D03*
D12*
X199580000Y-299720000D03*
G04 #@! TD*
D14*
G04 #@! TO.C,SW335*
X201680000Y-309880000D03*
X189480000Y-309880000D03*
D12*
X195580000Y-309880000D03*
X193580000Y-309880000D03*
D13*
X191580000Y-309880000D03*
D12*
X199580000Y-309880000D03*
G04 #@! TD*
D14*
G04 #@! TO.C,SW336*
X219460000Y-15240000D03*
X207260000Y-15240000D03*
D12*
X213360000Y-15240000D03*
X211360000Y-15240000D03*
D13*
X209360000Y-15240000D03*
D12*
X217360000Y-15240000D03*
G04 #@! TD*
D14*
G04 #@! TO.C,SW337*
X219460000Y-25400000D03*
X207260000Y-25400000D03*
D12*
X213360000Y-25400000D03*
X211360000Y-25400000D03*
D13*
X209360000Y-25400000D03*
D12*
X217360000Y-25400000D03*
G04 #@! TD*
D14*
G04 #@! TO.C,SW338*
X219460000Y-35560000D03*
X207260000Y-35560000D03*
D12*
X213360000Y-35560000D03*
X211360000Y-35560000D03*
D13*
X209360000Y-35560000D03*
D12*
X217360000Y-35560000D03*
G04 #@! TD*
G04 #@! TO.C,SW339*
X217360000Y-45720000D03*
D13*
X209360000Y-45720000D03*
D12*
X211360000Y-45720000D03*
X213360000Y-45720000D03*
D14*
X207260000Y-45720000D03*
X219460000Y-45720000D03*
G04 #@! TD*
G04 #@! TO.C,SW340*
X219460000Y-55880000D03*
X207260000Y-55880000D03*
D12*
X213360000Y-55880000D03*
X211360000Y-55880000D03*
D13*
X209360000Y-55880000D03*
D12*
X217360000Y-55880000D03*
G04 #@! TD*
D14*
G04 #@! TO.C,SW341*
X219460000Y-66040000D03*
X207260000Y-66040000D03*
D12*
X213360000Y-66040000D03*
X211360000Y-66040000D03*
D13*
X209360000Y-66040000D03*
D12*
X217360000Y-66040000D03*
G04 #@! TD*
G04 #@! TO.C,SW342*
X217360000Y-76200000D03*
D13*
X209360000Y-76200000D03*
D12*
X211360000Y-76200000D03*
X213360000Y-76200000D03*
D14*
X207260000Y-76200000D03*
X219460000Y-76200000D03*
G04 #@! TD*
D12*
G04 #@! TO.C,SW343*
X217360000Y-86360000D03*
D13*
X209360000Y-86360000D03*
D12*
X211360000Y-86360000D03*
X213360000Y-86360000D03*
D14*
X207260000Y-86360000D03*
X219460000Y-86360000D03*
G04 #@! TD*
D12*
G04 #@! TO.C,SW344*
X217360000Y-96520000D03*
D13*
X209360000Y-96520000D03*
D12*
X211360000Y-96520000D03*
X213360000Y-96520000D03*
D14*
X207260000Y-96520000D03*
X219460000Y-96520000D03*
G04 #@! TD*
D12*
G04 #@! TO.C,SW345*
X217360000Y-106680000D03*
D13*
X209360000Y-106680000D03*
D12*
X211360000Y-106680000D03*
X213360000Y-106680000D03*
D14*
X207260000Y-106680000D03*
X219460000Y-106680000D03*
G04 #@! TD*
D12*
G04 #@! TO.C,SW346*
X217360000Y-116840000D03*
D13*
X209360000Y-116840000D03*
D12*
X211360000Y-116840000D03*
X213360000Y-116840000D03*
D14*
X207260000Y-116840000D03*
X219460000Y-116840000D03*
G04 #@! TD*
D12*
G04 #@! TO.C,SW347*
X217360000Y-127000000D03*
D13*
X209360000Y-127000000D03*
D12*
X211360000Y-127000000D03*
X213360000Y-127000000D03*
D14*
X207260000Y-127000000D03*
X219460000Y-127000000D03*
G04 #@! TD*
D12*
G04 #@! TO.C,SW348*
X217360000Y-137160000D03*
D13*
X209360000Y-137160000D03*
D12*
X211360000Y-137160000D03*
X213360000Y-137160000D03*
D14*
X207260000Y-137160000D03*
X219460000Y-137160000D03*
G04 #@! TD*
D12*
G04 #@! TO.C,SW349*
X217360000Y-147320000D03*
D13*
X209360000Y-147320000D03*
D12*
X211360000Y-147320000D03*
X213360000Y-147320000D03*
D14*
X207260000Y-147320000D03*
X219460000Y-147320000D03*
G04 #@! TD*
D12*
G04 #@! TO.C,SW350*
X217360000Y-157480000D03*
D13*
X209360000Y-157480000D03*
D12*
X211360000Y-157480000D03*
X213360000Y-157480000D03*
D14*
X207260000Y-157480000D03*
X219460000Y-157480000D03*
G04 #@! TD*
D12*
G04 #@! TO.C,SW351*
X217360000Y-167640000D03*
D13*
X209360000Y-167640000D03*
D12*
X211360000Y-167640000D03*
X213360000Y-167640000D03*
D14*
X207260000Y-167640000D03*
X219460000Y-167640000D03*
G04 #@! TD*
D12*
G04 #@! TO.C,SW352*
X217360000Y-177800000D03*
D13*
X209360000Y-177800000D03*
D12*
X211360000Y-177800000D03*
X213360000Y-177800000D03*
D14*
X207260000Y-177800000D03*
X219460000Y-177800000D03*
G04 #@! TD*
D12*
G04 #@! TO.C,SW353*
X217360000Y-187960000D03*
D13*
X209360000Y-187960000D03*
D12*
X211360000Y-187960000D03*
X213360000Y-187960000D03*
D14*
X207260000Y-187960000D03*
X219460000Y-187960000D03*
G04 #@! TD*
D12*
G04 #@! TO.C,SW354*
X217360000Y-198120000D03*
D13*
X209360000Y-198120000D03*
D12*
X211360000Y-198120000D03*
X213360000Y-198120000D03*
D14*
X207260000Y-198120000D03*
X219460000Y-198120000D03*
G04 #@! TD*
D12*
G04 #@! TO.C,SW355*
X217360000Y-208280000D03*
D13*
X209360000Y-208280000D03*
D12*
X211360000Y-208280000D03*
X213360000Y-208280000D03*
D14*
X207260000Y-208280000D03*
X219460000Y-208280000D03*
G04 #@! TD*
D12*
G04 #@! TO.C,SW356*
X217360000Y-218440000D03*
D13*
X209360000Y-218440000D03*
D12*
X211360000Y-218440000D03*
X213360000Y-218440000D03*
D14*
X207260000Y-218440000D03*
X219460000Y-218440000D03*
G04 #@! TD*
D12*
G04 #@! TO.C,SW357*
X217360000Y-228600000D03*
D13*
X209360000Y-228600000D03*
D12*
X211360000Y-228600000D03*
X213360000Y-228600000D03*
D14*
X207260000Y-228600000D03*
X219460000Y-228600000D03*
G04 #@! TD*
D12*
G04 #@! TO.C,SW358*
X217360000Y-238760000D03*
D13*
X209360000Y-238760000D03*
D12*
X211360000Y-238760000D03*
X213360000Y-238760000D03*
D14*
X207260000Y-238760000D03*
X219460000Y-238760000D03*
G04 #@! TD*
D12*
G04 #@! TO.C,SW359*
X217360000Y-248920000D03*
D13*
X209360000Y-248920000D03*
D12*
X211360000Y-248920000D03*
X213360000Y-248920000D03*
D14*
X207260000Y-248920000D03*
X219460000Y-248920000D03*
G04 #@! TD*
G04 #@! TO.C,SW360*
X219460000Y-259080000D03*
X207260000Y-259080000D03*
D12*
X213360000Y-259080000D03*
X211360000Y-259080000D03*
D13*
X209360000Y-259080000D03*
D12*
X217360000Y-259080000D03*
G04 #@! TD*
G04 #@! TO.C,SW361*
X217360000Y-269240000D03*
D13*
X209360000Y-269240000D03*
D12*
X211360000Y-269240000D03*
X213360000Y-269240000D03*
D14*
X207260000Y-269240000D03*
X219460000Y-269240000D03*
G04 #@! TD*
G04 #@! TO.C,SW362*
X219460000Y-279400000D03*
X207260000Y-279400000D03*
D12*
X213360000Y-279400000D03*
X211360000Y-279400000D03*
D13*
X209360000Y-279400000D03*
D12*
X217360000Y-279400000D03*
G04 #@! TD*
G04 #@! TO.C,SW363*
X217360000Y-289560000D03*
D13*
X209360000Y-289560000D03*
D12*
X211360000Y-289560000D03*
X213360000Y-289560000D03*
D14*
X207260000Y-289560000D03*
X219460000Y-289560000D03*
G04 #@! TD*
G04 #@! TO.C,SW364*
X219460000Y-299720000D03*
X207260000Y-299720000D03*
D12*
X213360000Y-299720000D03*
X211360000Y-299720000D03*
D13*
X209360000Y-299720000D03*
D12*
X217360000Y-299720000D03*
G04 #@! TD*
G04 #@! TO.C,SW365*
X217360000Y-309880000D03*
D13*
X209360000Y-309880000D03*
D12*
X211360000Y-309880000D03*
X213360000Y-309880000D03*
D14*
X207260000Y-309880000D03*
X219460000Y-309880000D03*
G04 #@! TD*
G04 #@! TO.C,SW366*
X219460000Y-320040000D03*
X207260000Y-320040000D03*
D12*
X213360000Y-320040000D03*
X211360000Y-320040000D03*
D13*
X209360000Y-320040000D03*
D12*
X217360000Y-320040000D03*
G04 #@! TD*
D15*
G04 #@! TO.C,MH1*
X5080000Y-5080000D03*
G04 #@! TD*
G04 #@! TO.C,MH2*
X226060000Y-5080000D03*
G04 #@! TD*
G04 #@! TO.C,MH3*
X5080000Y-327660000D03*
G04 #@! TD*
G04 #@! TO.C,MH4*
X226060000Y-327660000D03*
G04 #@! TD*
M02*
